<?xml version="1.0" standalone="no"?>
<!DOCTYPE svg PUBLIC "-//W3C//DTD SVG 20010904//EN"
 "http://www.w3.org/TR/2001/REC-SVG-20010904/DTD/svg10.dtd">
<svg version="1.0" xmlns="http://www.w3.org/2000/svg"
 width="300.000000pt" height="334.000000pt" viewBox="0 0 300.000000 334.000000"
 preserveAspectRatio="xMidYMid meet">
<metadata>
Created by potrace 1.10, written by Peter Selinger 2001-2011
</metadata>
<g transform="translate(0.000000,334.000000) scale(0.100000,-0.100000)"
fill="#000000" stroke="none">
<path d="M1426 3253 c-21 -49 -44 -95 -51 -103 -21 -25 -70 -147 -81 -200 -4
-19 -9 -29 -11 -22 -3 6 -10 12 -18 12 -7 0 -18 7 -25 15 -7 8 -21 15 -30 15
-10 0 -37 18 -61 40 -33 30 -46 37 -59 30 -23 -12 -41 -64 -34 -98 3 -16 -3
-50 -16 -82 -14 -35 -18 -56 -11 -58 6 -2 11 -16 11 -30 0 -15 4 -42 9 -60 11
-37 2 -41 -25 -11 -23 26 -94 60 -196 94 -91 30 -110 31 -131 7 -21 -23 -21
-45 -1 -102 15 -41 26 -101 40 -205 3 -22 10 -44 15 -50 5 -5 9 -17 9 -27 0
-9 18 -36 41 -60 22 -24 47 -56 54 -73 l14 -30 -6 35 c-3 19 -19 50 -36 69
-41 48 -54 84 -73 198 -8 53 -24 124 -35 157 -31 90 -20 95 115 50 95 -32 122
-46 215 -117 58 -44 112 -87 119 -96 10 -12 12 -13 6 -1 -4 8 4 4 19 -9 l26
-23 -6 23 c-3 18 -2 20 5 10 8 -11 11 -10 15 5 4 16 5 17 6 2 1 -20 21 -25 21
-5 0 9 2 9 9 -1 7 -11 9 -11 14 1 6 16 23 17 44 4 9 -6 11 -3 6 10 -5 16 -3
15 16 -3 13 -12 25 -38 28 -63 9 -68 27 -61 47 19 4 16 0 13 -11 -10 -14 -29
-17 -32 -20 -15 -2 11 -11 38 -19 59 -13 33 -13 37 -1 28 8 -7 17 -9 21 -5 4
4 4 -1 1 -12 -4 -14 -1 -12 9 5 8 14 15 22 16 19 0 -4 16 -3 35 1 35 8 35 8
36 -29 l2 -36 6 36 c5 33 9 36 36 34 51 -5 59 -9 73 -39 8 -20 9 -33 2 -40 -5
-5 -10 -22 -10 -37 0 -15 -4 -29 -9 -31 -5 -2 -4 -24 4 -53 10 -38 14 -43 14
-22 1 16 -3 37 -9 47 -7 13 -6 21 5 30 8 7 15 23 15 37 0 40 29 86 51 80 10
-3 17 -1 13 4 -3 5 0 9 5 9 6 0 11 -6 11 -12 0 -9 3 -9 9 1 13 21 41 -4 41
-35 0 -13 4 -24 9 -24 6 0 6 12 1 29 -11 38 8 77 36 73 11 -1 29 7 40 19 l19
22 -28 -18 c-15 -10 -30 -15 -33 -12 -9 9 19 46 38 49 14 2 13 5 -8 15 -21 10
-25 9 -21 -1 3 -7 -3 -26 -14 -42 l-19 -29 0 35 c-1 30 -39 123 -39 95 0 -5 6
-21 14 -35 20 -36 20 -109 -1 -117 -11 -4 -22 1 -30 12 -8 10 -14 13 -14 7 0
-7 -13 -12 -30 -12 -25 0 -30 4 -30 25 0 13 6 28 14 32 7 4 19 25 25 45 11 34
28 51 114 121 15 12 38 31 51 42 36 33 76 56 85 51 5 -3 25 5 45 19 42 28 54
32 36 10 -7 -8 -10 -15 -7 -15 4 0 18 17 32 37 l25 38 0 -50 c0 -28 -7 -63
-15 -79 -9 -16 -12 -39 -9 -53 12 -47 -15 -99 -77 -148 -31 -25 -63 -45 -71
-45 -7 0 -20 -5 -28 -11 -13 -9 -12 -10 3 -5 27 8 20 0 -17 -23 -37 -23 -51
-27 -40 -10 5 8 2 9 -11 1 -10 -5 -19 -19 -20 -31 -1 -17 1 -19 14 -8 12 10
14 9 7 -8 -6 -16 0 -13 26 11 36 33 121 99 194 151 57 40 253 106 271 91 15
-12 8 -46 -18 -98 -10 -19 -23 -78 -29 -130 -14 -109 -34 -163 -79 -204 -22
-21 -31 -38 -30 -60 0 -26 2 -28 9 -11 4 11 26 39 49 63 26 27 46 60 53 88 7
24 16 44 20 44 4 0 8 30 8 68 1 42 8 87 21 122 32 85 34 108 13 131 -16 17
-26 20 -63 14 -25 -4 -67 -15 -93 -26 -27 -10 -56 -19 -65 -19 -16 0 -16 -3 2
160 4 32 1 51 -10 65 -16 20 -16 20 -78 -11 -69 -35 -113 -54 -127 -54 -5 0
-14 19 -21 42 -16 60 -55 134 -75 142 -20 8 -37 -5 -65 -50 -11 -19 -24 -34
-28 -34 -4 0 -13 17 -19 38 -6 21 -25 51 -42 67 -16 16 -30 36 -30 44 -1 36
-87 160 -111 161 -10 0 -29 -30 -53 -87z m96 -3 c21 -36 37 -73 34 -82 -2 -11
8 -28 30 -45 41 -33 79 -125 64 -154 -6 -10 -10 -41 -10 -69 0 -50 -15 -90
-50 -134 -11 -15 -12 -17 -1 -11 16 9 12 -27 -11 -88 -19 -49 -31 -60 -57 -52
-28 9 -20 37 23 85 l31 35 -37 -34 c-37 -34 -38 -34 -38 -11 0 14 16 41 37 65
37 39 36 38 -11 -5 -40 -37 -48 -41 -43 -22 3 12 1 20 -4 16 -24 -15 -4 65 36
143 25 48 39 81 31 73 -8 -8 -29 -42 -45 -75 l-31 -60 6 80 c6 73 9 83 40 115
19 20 34 40 34 45 0 4 -15 -9 -34 -30 l-33 -39 -7 148 c-5 82 -10 156 -14 164
-3 9 0 13 8 10 7 -2 30 -33 52 -68z m-53 -210 c1 -167 -9 -268 -27 -266 -8 2
-22 17 -31 35 l-17 32 -12 -25 c-6 -14 -8 -25 -4 -25 20 3 31 -3 37 -22 4 -12
20 -33 35 -48 22 -20 30 -37 32 -70 l3 -45 -42 -1 c-23 -1 -40 3 -37 7 3 4 0
8 -7 8 -7 0 -5 9 6 26 9 15 12 23 5 19 -8 -5 -10 3 -7 27 2 18 2 25 0 16 -2
-10 -7 -18 -10 -18 -3 0 -12 8 -20 18 -11 13 -11 11 1 -14 8 -17 14 -45 14
-62 -1 -29 -4 -32 -33 -32 -17 0 -37 6 -44 13 -10 10 -11 9 -6 -5 4 -11 2 -18
-4 -18 -7 0 -14 8 -17 18 -6 17 -12 33 -33 85 -6 17 -7 27 -1 27 6 0 10 7 10
16 0 14 8 16 50 11 31 -4 50 -2 50 4 0 17 -20 50 -28 45 -4 -2 -8 44 -9 102
-2 91 0 104 11 89 12 -15 14 -12 20 32 4 28 11 53 16 56 6 3 10 14 10 23 0 10
8 22 19 29 10 6 21 23 25 37 3 14 11 38 18 53 11 28 12 27 19 -22 4 -27 8 -97
8 -155z m321 -23 c0 -16 4 -25 10 -22 14 9 25 -46 22 -110 -1 -19 -10 -35 -23
-43 -17 -11 -20 -11 -14 0 4 7 -3 2 -14 -12 -11 -14 -21 -20 -21 -15 0 6 -5 3
-10 -5 -9 -13 -10 -13 -10 0 0 13 -1 13 -10 0 -8 -13 -10 -13 -10 1 0 16 32
146 45 184 4 11 -9 -5 -29 -35 -20 -30 -36 -59 -36 -65 1 -5 8 1 16 15 l15 25
-6 -30 c-3 -16 -9 -56 -12 -87 -4 -42 -11 -62 -29 -79 -26 -25 -32 -14 -9 17
8 10 14 33 13 49 l-1 30 -4 -29 c-3 -16 -15 -46 -28 -67 -17 -26 -21 -39 -12
-42 9 -3 8 -11 -2 -33 -18 -36 -21 -54 -12 -54 5 0 6 -12 4 -27 -4 -22 -2 -25
6 -13 13 19 14 1 1 -20 -7 -12 -11 -8 -16 18 -5 22 -12 32 -25 32 -11 0 -19 5
-19 10 0 6 5 10 11 10 5 0 8 4 4 10 -3 5 -1 17 4 27 16 30 46 117 43 127 -1 4
2 13 7 20 5 6 12 35 14 64 3 37 14 65 33 94 40 56 52 78 65 113 l11 30 14 -30
c7 -16 13 -43 14 -58z m-672 -16 c14 -32 83 -85 92 -71 3 6 20 -5 36 -23 51
-53 74 -89 67 -100 -4 -6 -10 -3 -15 9 -5 12 -6 8 -2 -14 3 -18 2 -31 -3 -30
-14 4 -54 -23 -48 -33 4 -5 2 -9 -3 -9 -14 0 -20 32 -11 55 4 11 7 36 7 55 0
36 -2 32 -14 -35 l-7 -40 -28 60 c-15 33 -28 57 -29 53 0 -8 11 -37 44 -110
l26 -58 -29 -15 c-16 -8 -33 -24 -36 -35 -5 -17 -10 -19 -20 -10 -12 10 -13 7
-10 -10 5 -25 15 -40 15 -22 0 7 7 12 15 12 8 0 15 7 15 16 0 10 6 14 15 10 9
-3 15 0 15 9 0 8 5 15 11 15 8 0 9 -11 5 -31 -3 -17 -6 -40 -6 -51 0 -10 -4
-16 -10 -13 -5 3 -10 1 -10 -4 0 -8 -10 -7 -31 1 -24 10 -37 28 -60 80 -41 94
-55 174 -35 197 12 13 16 39 16 94 0 82 7 95 28 48z m150 -422 c-24 -15 -41
15 -33 58 l8 38 19 -44 c16 -36 17 -45 6 -52z"/>
<path d="M1604 2932 c4 -6 -4 -18 -17 -26 -31 -21 -90 -101 -92 -126 -2 -18 1
-17 24 8 14 15 40 41 56 56 l30 29 -34 -27 c-52 -42 -50 -21 3 33 34 34 44 51
35 56 -7 5 -10 4 -5 -3z"/>
<path d="M1400 3032 c0 -9 49 -82 55 -82 2 0 -8 20 -22 45 -24 43 -33 54 -33
37z"/>
<path d="M1381 2938 c-1 -18 40 -130 45 -125 2 2 -8 34 -21 72 -13 39 -24 63
-24 53z"/>
<path d="M1111 2922 c-1 -7 13 -39 29 -72 17 -33 26 -60 21 -60 -6 0 -13 5
-16 10 -3 6 -11 10 -18 10 -6 0 5 -11 26 -25 20 -14 37 -29 37 -33 0 -5 7 -17
15 -28 9 -10 -6 26 -33 81 -27 55 -52 107 -55 115 -3 10 -6 10 -6 2z"/>
<path d="M686 2979 c-27 -21 -34 -53 -14 -65 8 -5 9 -2 4 11 -8 21 19 55 44
55 9 0 22 -6 29 -12 11 -10 10 -8 0 10 -17 27 -29 28 -63 1z"/>
<path d="M2255 2984 l-30 -13 37 5 c30 5 38 2 47 -15 9 -15 9 -27 1 -41 -8
-14 -8 -20 0 -20 16 0 29 43 19 62 -16 30 -41 37 -74 22z"/>
<path d="M700 2940 c0 -11 4 -20 9 -20 13 0 32 26 24 33 -13 14 -33 6 -33 -13z"/>
<path d="M2262 2943 c4 -21 33 -25 33 -3 0 8 -8 16 -18 18 -14 3 -18 -1 -15
-15z"/>
<path d="M1944 2853 l-49 -68 -6 40 -6 40 -2 -43 c-1 -30 -5 -41 -13 -36 -7 4
-8 3 -4 -4 4 -6 1 -22 -6 -34 -12 -22 -13 -21 -19 22 l-6 45 -1 -47 c-1 -25
-5 -55 -8 -65 -6 -17 0 -11 71 73 19 21 34 30 53 29 19 -2 20 -1 5 2 -19 4
-21 7 -11 23 6 10 17 16 23 14 6 -3 19 3 30 11 19 15 19 16 -3 5 -30 -15 -40
-6 -20 17 17 21 31 43 26 43 -2 0 -26 -30 -54 -67z"/>
<path d="M924 2883 c-9 -14 -8 -21 2 -31 19 -17 46 -4 42 22 -4 27 -30 32 -44
9z"/>
<path d="M584 2662 c-1 -123 2 -177 6 -144 4 29 15 63 24 77 13 20 14 25 3 25
-11 0 -14 23 -13 109 1 62 -3 114 -9 120 -7 7 -10 -56 -11 -187z"/>
<path d="M559 2840 c-4 -8 -5 -30 -4 -48 2 -31 0 -33 -24 -26 -49 14 -73 10
-92 -16 -18 -23 -18 -29 -6 -65 13 -37 13 -42 -6 -68 -17 -25 -18 -34 -8 -67
6 -22 23 -48 36 -58 24 -19 33 -42 17 -42 -12 0 -12 -29 -1 -67 8 -24 6 -39
-6 -64 -11 -20 -18 -59 -19 -103 -1 -46 -5 -71 -13 -71 -6 0 -15 -3 -19 -7 -4
-5 -1 -8 7 -8 8 0 19 -11 26 -25 12 -26 7 -65 -8 -65 -5 0 -9 -5 -9 -12 0 -9
3 -9 12 0 21 21 41 14 34 -11 -3 -13 -2 -37 2 -53 5 -17 4 -42 -3 -60 -10 -31
-12 -31 -36 -18 -22 11 -29 11 -45 0 -15 -12 -18 -27 -17 -102 1 -124 2 -134
13 -134 6 0 10 -5 10 -11 0 -7 20 -35 43 -63 41 -47 49 -65 64 -138 5 -27 4
-28 -40 -28 -28 0 -52 -6 -61 -16 -22 -21 -20 -25 7 -15 26 10 123 7 152 -4
19 -8 19 -8 2 12 -20 22 -57 114 -57 139 0 25 17 7 23 -26 13 -62 58 -138 91
-152 35 -14 116 -85 116 -101 0 -5 -8 -3 -18 6 -26 24 -39 21 -17 -3 10 -11
24 -20 32 -20 7 0 13 -4 13 -10 0 -19 -18 -10 -54 26 -20 20 -29 34 -21 30 8
-3 15 -4 15 -2 0 8 -170 96 -182 95 -7 0 1 -7 17 -14 17 -7 28 -17 26 -22 -3
-4 22 -26 55 -47 66 -44 180 -153 170 -163 -3 -4 -23 9 -44 29 -20 20 -68 56
-107 81 -38 25 -94 64 -124 86 -31 23 -66 41 -80 41 l-26 0 30 -25 c26 -21 27
-24 10 -25 -11 0 -37 9 -58 20 -44 24 -47 24 -47 5 0 -25 87 -72 145 -79 72
-8 196 -66 228 -107 22 -28 23 -34 11 -47 -8 -8 -17 -12 -20 -9 -5 4 -43 -26
-69 -54 -5 -6 -20 -21 -33 -33 -33 -34 -72 -95 -72 -112 0 -8 -7 -25 -15 -38
-27 -41 -18 -181 14 -220 9 -11 9 -16 0 -21 -6 -4 -14 -4 -18 1 -18 25 -75 6
-85 -28 -5 -22 33 -68 58 -68 19 0 54 51 49 70 -6 19 55 -50 62 -71 3 -9 18
-22 33 -30 15 -8 41 -22 59 -32 l32 -18 -25 -36 c-13 -20 -27 -48 -29 -62 -3
-14 -9 -44 -14 -66 -10 -41 -4 -87 14 -116 21 -34 205 -103 205 -78 0 5 9 9
19 9 11 0 22 4 25 8 5 8 -32 11 -124 12 l-45 0 24 19 25 19 -25 -5 c-14 -3
-42 2 -62 11 -34 14 -36 17 -27 40 8 21 6 26 -6 26 -12 0 -13 4 -3 22 6 13 21
34 33 47 l21 23 -22 -6 c-13 -4 -23 -3 -23 1 0 18 57 99 87 124 17 14 36 35
42 47 6 12 18 22 26 22 9 0 24 5 35 10 11 6 28 14 39 19 36 18 88 23 96 10 6
-8 4 -11 -6 -7 -8 3 -23 0 -33 -8 -17 -12 -14 -13 20 -8 22 3 60 12 86 21 70
22 86 15 54 -22 -14 -16 -26 -33 -26 -37 0 -5 -4 -8 -10 -8 -5 0 -19 -9 -31
-21 l-21 -21 22 7 c17 5 20 4 15 -5 -5 -9 -28 -11 -75 -8 -66 5 -194 -12 -208
-27 -4 -5 4 -5 18 -1 14 4 75 10 136 13 117 6 146 -3 108 -33 -17 -12 -17 -13
-1 -8 20 7 23 -15 6 -49 -10 -21 -10 -21 5 -3 20 25 33 13 19 -17 -8 -16 -7
-25 3 -34 15 -14 5 -60 -21 -99 -25 -39 -95 -84 -129 -84 -41 0 -66 -15 -37
-23 59 -15 155 38 196 108 22 36 32 45 55 45 15 0 33 -7 40 -15 7 -8 28 -15
46 -15 19 0 43 -5 53 -11 37 -24 91 9 196 119 17 17 34 32 37 32 2 0 25 -20
50 -45 47 -46 67 -52 114 -35 17 7 30 7 38 0 7 -5 35 -7 67 -3 43 5 70 17 132
60 43 29 83 50 89 47 6 -4 8 2 3 16 -4 13 -2 33 6 46 12 23 13 23 32 7 19 -17
20 -17 9 3 -6 11 -18 26 -26 34 -10 7 -16 29 -16 53 0 32 -7 48 -30 72 -36 37
-28 54 28 62 57 8 86 47 76 108 -5 37 -3 45 9 45 11 0 13 -6 10 -21 -4 -14 0
-26 11 -35 16 -11 16 -15 3 -41 -18 -38 -11 -62 21 -69 64 -15 161 -88 162
-121 0 -7 4 -13 9 -13 10 0 51 -65 51 -82 0 -6 -7 -5 -17 3 -17 13 -17 13 -1
-7 20 -23 51 -104 40 -104 -5 0 -14 6 -21 13 -9 8 -8 1 3 -20 9 -18 16 -34 16
-36 0 -3 -23 -8 -52 -11 -37 -5 -53 -4 -59 6 -7 10 -9 10 -9 1 0 -8 -14 -13
-35 -13 -27 0 -35 4 -35 18 -1 16 -1 16 -11 0 -5 -10 -22 -18 -36 -18 -27 0
-103 38 -103 52 0 5 -6 3 -13 -4 -12 -10 -4 -18 42 -42 53 -28 63 -29 168 -29
61 1 120 4 132 8 37 12 45 76 21 179 l-19 81 25 23 c13 13 32 34 41 48 l16 25
27 -32 c21 -25 31 -31 51 -26 37 10 53 41 37 75 -16 32 -52 40 -77 18 -29 -26
-30 -9 -3 56 25 64 27 141 3 184 -5 11 -12 30 -15 44 -3 14 -27 47 -53 75
l-48 50 45 8 c66 12 127 43 186 93 54 47 82 91 91 150 10 62 -38 90 -87 49
-20 -17 -60 -25 -60 -13 0 5 13 15 30 21 37 14 39 27 3 27 -16 0 -65 -26 -125
-66 -54 -36 -116 -75 -137 -87 -65 -38 -111 -79 -111 -102 0 -18 7 -15 49 24
66 63 180 119 256 127 70 8 105 24 134 60 l21 27 0 -35 c0 -19 -6 -43 -14 -53
-8 -11 -12 -24 -10 -30 3 -6 -7 -22 -21 -36 -13 -13 -37 -36 -52 -51 -32 -31
-156 -98 -182 -98 -27 0 -119 49 -126 68 -6 15 -8 14 -20 -8 -15 -27 -20 -54
-6 -32 7 11 11 11 24 -2 8 -9 23 -16 31 -16 9 0 16 -7 16 -15 0 -9 6 -12 15
-9 21 8 31 -24 15 -50 -13 -21 -13 -21 8 -2 22 19 22 19 48 -7 14 -14 23 -31
19 -37 -3 -6 3 -10 15 -10 17 0 21 -5 18 -23 -1 -13 5 -35 15 -50 12 -18 14
-28 5 -33 -7 -5 -5 -11 7 -20 14 -11 16 -16 6 -28 -9 -10 -9 -16 -1 -21 8 -5
6 -13 -5 -25 -9 -10 -14 -24 -10 -30 4 -6 1 -17 -5 -25 -14 -17 -45 -21 -35
-5 4 6 -10 10 -34 10 -21 0 -46 3 -55 6 -23 9 3 44 34 45 23 2 24 2 3 6 -31 6
-31 43 0 44 21 1 21 1 -2 8 -23 6 -42 31 -24 31 4 0 8 13 8 30 1 19 -4 30 -13
30 -11 0 -12 3 -3 13 6 8 8 17 4 20 -3 4 2 17 13 28 l19 22 -30 -19 c-27 -18
-29 -18 -22 -1 6 15 4 16 -13 7 -11 -6 -21 -8 -21 -5 -1 3 -2 11 -3 18 -2 16
-26 10 -41 -10 -11 -14 -12 -14 -18 1 -4 10 -2 26 4 37 5 11 8 30 6 42 -4 19
-4 19 -6 -4 0 -14 -10 -34 -21 -44 -19 -17 -20 -17 -20 1 0 16 -2 17 -10 4
-15 -23 -12 -30 10 -30 13 0 20 -7 20 -19 0 -18 3 -19 32 -9 24 9 33 8 36 0 2
-7 9 -12 15 -12 19 0 40 -79 26 -96 -9 -11 -9 -20 1 -39 11 -20 10 -28 -6 -56
-15 -25 -36 -39 -92 -62 -51 -20 -77 -26 -84 -19 -7 7 2 14 29 21 64 17 122
95 105 141 -5 14 -8 30 -6 35 2 6 -9 19 -25 30 -16 10 -27 23 -25 27 3 4 -2 8
-10 8 -8 0 -18 -5 -21 -10 -4 -6 -15 -8 -26 -5 -13 4 -19 2 -19 -9 0 -17 -47
-76 -61 -76 -6 0 -7 6 -2 13 4 6 8 17 9 23 3 16 55 94 64 94 4 0 14 28 21 62
13 55 15 59 20 32 4 -19 7 -7 7 36 0 36 -2 56 -5 45 -11 -49 -15 -49 -39 0
-13 28 -38 66 -55 85 l-31 35 33 -67 c18 -37 37 -64 42 -61 6 3 7 2 4 -4 -3
-5 -1 -27 4 -48 10 -35 8 -45 -22 -106 -37 -73 -59 -86 -75 -41 -7 20 -6 37 4
64 16 41 10 91 -25 184 -22 59 -47 64 -31 6 5 -20 14 -41 18 -46 5 -5 6 -15 3
-24 -4 -10 -2 -13 6 -8 13 8 6 -58 -11 -103 l-9 -25 -19 32 c-11 18 -22 32
-25 32 -4 0 -3 -5 0 -10 3 -6 2 -10 -4 -10 -6 0 -8 14 -6 33 4 25 3 28 -4 12
-7 -14 -9 5 -7 63 2 45 0 82 -4 82 -17 0 -32 -51 -26 -87 16 -80 9 -91 -41
-72 -18 7 -21 13 -16 47 3 22 1 42 -5 46 -11 6 -42 -95 -42 -137 0 -15 -9 -41
-20 -59 -11 -18 -20 -30 -20 -26 0 4 -12 -4 -26 -17 -15 -14 -31 -25 -36 -25
-5 0 -7 -4 -3 -9 3 -5 1 -12 -4 -15 -8 -6 -27 30 -24 44 1 3 -7 6 -17 7 -18 2
-18 1 1 -18 10 -10 19 -27 19 -36 -1 -14 -4 -12 -14 6 -8 14 -21 25 -29 27
-13 2 -14 -3 -6 -23 12 -31 11 -42 -1 -23 -8 12 -10 12 -10 -5 -1 -16 -4 -14
-13 9 -7 16 -20 30 -30 32 -10 1 -14 -2 -10 -9 4 -6 0 -8 -10 -4 -16 6 -16 4
-1 -25 14 -28 14 -32 0 -46 -15 -15 -16 -14 -17 8 -1 19 -3 17 -9 -10 l-7 -35
-2 30 c-1 17 -7 39 -12 50 -7 15 -8 9 -4 -23 3 -25 0 -55 -8 -75 -15 -35 -47
-68 -47 -47 0 7 -11 3 -26 -9 -29 -23 -49 -28 -38 -9 4 6 3 8 -4 5 -5 -4 -18
-4 -28 0 -15 6 -14 7 6 15 13 5 27 4 34 -1 7 -6 17 -6 26 -1 18 11 19 10 -57
43 -59 26 -64 27 -133 16 -40 -7 -81 -20 -93 -31 -22 -18 -21 -18 15 -3 56 23
62 18 23 -17 -37 -32 -34 -51 8 -40 12 3 18 1 14 -5 -10 -16 41 -26 61 -13 14
9 12 10 -11 5 -19 -4 -26 -2 -22 5 10 16 33 12 80 -16 58 -34 123 -38 167 -11
29 18 56 23 151 27 9 1 15 5 12 10 -6 9 18 20 48 21 21 0 21 1 2 9 -11 5 -15
9 -10 10 49 5 105 9 105 6 0 -4 -41 -26 -139 -76 l-53 -28 36 -4 c20 -2 36 0
36 6 0 5 3 6 7 3 3 -4 13 -1 21 6 13 10 15 9 8 -3 -4 -9 -1 -8 7 3 8 9 16 17
19 17 3 0 21 -24 40 -52 28 -43 36 -66 41 -122 4 -38 12 -74 18 -80 9 -8 10
-7 6 5 -3 9 -8 38 -11 65 -6 42 -5 46 6 30 37 -54 44 -53 13 1 -19 34 -35 64
-35 68 0 4 -16 25 -35 48 -45 53 -31 73 20 28 20 -17 39 -31 43 -31 3 0 -10
14 -31 31 -43 35 -50 60 -9 34 l27 -18 -19 21 c-19 22 -19 22 3 22 32 0 97
-36 147 -82 46 -42 54 -58 29 -58 -12 0 -12 -5 0 -41 17 -46 8 -69 -26 -69
-15 0 -17 -4 -9 -24 10 -26 -10 -54 -30 -41 -5 3 -10 1 -10 -4 0 -6 -8 -11
-18 -11 -11 0 -24 -11 -30 -25 -12 -27 -40 -33 -61 -12 -10 10 -14 9 -22 -5
-17 -30 -47 -22 -58 14 -7 26 -9 28 -10 11 -1 -17 -7 -23 -22 -23 -12 0 -28
-8 -35 -17 -12 -17 -15 -16 -44 12 -18 17 -43 49 -57 73 -22 37 -24 50 -18 97
4 37 3 55 -4 55 -7 0 -11 -22 -11 -54 0 -46 -6 -62 -41 -115 -32 -47 -45 -60
-59 -56 -13 4 -20 0 -25 -14 -15 -47 -95 -95 -95 -57 0 10 -11 12 -44 9 -37
-5 -46 -2 -55 15 -9 17 -17 20 -47 15 l-37 -6 5 56 c3 37 1 55 -6 54 -18 -3
-9 77 12 119 30 58 85 107 111 99 14 -4 21 -2 21 8 0 16 -93 16 -126 0 -28
-14 -114 -17 -114 -4 0 6 -14 11 -31 11 -26 0 -30 2 -19 15 10 12 7 13 -20 5
-27 -8 -60 -5 -60 6 0 1 11 15 25 30 13 14 21 32 17 38 -10 17 -11 69 -1 88 5
9 16 24 26 33 13 14 14 18 2 25 -31 20 71 90 108 75 17 -7 16 -8 -2 -15 -14
-6 -15 -9 -5 -10 10 -1 9 -4 -5 -10 -16 -7 -16 -9 -4 -9 27 -1 31 -30 8 -54
-15 -16 -20 -32 -17 -58 3 -38 -2 -47 -42 -67 -18 -9 -20 -11 -5 -8 11 2 27 7
36 10 12 5 18 0 22 -21 3 -16 0 -31 -6 -36 -7 -5 -2 -6 10 -2 17 5 21 3 18 -8
-4 -8 4 -18 20 -25 14 -6 25 -11 25 -9 0 1 4 17 10 36 l9 34 -22 -22 c-13 -11
-27 -21 -30 -21 -16 0 88 182 107 190 41 15 39 -4 -5 -43 l-44 -39 64 32 c71
35 85 35 151 -8 49 -32 97 -51 86 -34 -3 6 0 12 6 15 23 7 -21 46 -46 41 -14
-2 -30 4 -41 16 -10 11 -22 17 -28 13 -5 -3 -16 2 -24 12 -9 14 -13 15 -13 4
0 -12 -2 -12 -10 1 -5 8 -10 35 -10 60 0 49 -17 91 -38 98 -10 3 -9 -3 3 -22
12 -18 14 -26 5 -26 -9 0 -9 -4 -3 -12 6 -7 9 -24 8 -38 -1 -14 2 -34 8 -45 9
-18 9 -19 -6 -6 -10 7 -17 10 -17 6 0 -14 -31 18 -46 47 -14 26 -13 31 4 56
16 23 18 36 12 87 -9 76 -30 146 -41 139 -5 -3 -9 -14 -9 -25 0 -31 -20 -22
-27 13 -6 30 -8 26 -20 -37 -8 -39 -19 -74 -25 -80 -7 -7 -8 -1 -4 20 14 60
18 133 8 138 -8 6 -18 -43 -37 -183 -3 -25 -9 -50 -13 -56 -10 -15 -62 -27
-62 -14 0 5 3 10 8 10 4 0 6 20 4 45 -2 25 1 60 8 77 7 18 14 44 16 58 2 14 9
41 14 60 l10 35 -6 -40 c-8 -63 -9 -67 -23 -114 -12 -42 -8 -111 7 -111 4 0 5
24 4 54 -3 37 2 64 14 87 29 57 33 92 12 113 -22 23 -24 44 -3 26 26 -22 16 1
-19 42 -56 65 -77 150 -60 237 11 52 21 35 16 -29 -6 -80 3 -117 39 -174 36
-58 49 -55 18 5 -25 50 -36 151 -20 192 l11 27 99 -2 c97 -3 100 -2 104 20 4
20 1 23 -17 17 -68 -20 -181 -16 -247 10 -13 5 -18 -5 -27 -47 -12 -59 -39
-125 -74 -178 -16 -25 -17 -31 -5 -21 23 18 21 5 -4 -30 -11 -16 -17 -29 -13
-29 3 0 0 -8 -7 -18 -13 -15 -12 -16 3 -3 10 7 15 18 11 25 -4 7 -2 7 7 -1 10
-9 8 -18 -14 -43 -14 -17 -26 -36 -26 -42 0 -6 10 2 23 18 12 16 34 42 50 58
15 16 27 34 27 40 0 6 5 4 10 -4 12 -19 13 -33 1 -25 -5 3 -13 0 -17 -6 -5 -8
-3 -9 6 -4 8 5 11 3 9 -4 -3 -7 -7 -11 -11 -9 -10 5 -58 -43 -85 -86 -18 -28
-26 -57 -29 -100 -2 -40 -1 -52 4 -36 l8 25 5 -26 c4 -20 1 -25 -14 -27 -11 0
-24 -6 -28 -13 -4 -8 -12 -2 -24 17 -9 16 -14 21 -11 11 15 -49 17 -67 8 -67
-6 0 -15 12 -20 28 -6 15 -11 20 -11 11 -2 -29 -23 -40 -44 -22 -15 14 -18 14
-15 3 2 -10 -5 -15 -19 -14 -12 0 -20 -3 -17 -8 3 -4 11 -8 17 -8 7 0 18 -4
25 -8 15 -10 3 -49 -23 -75 -15 -16 -15 -17 0 -17 11 0 15 -7 13 -22 -2 -18
-9 -23 -30 -23 -34 1 -35 -3 -5 -14 l22 -9 -25 -10 c-23 -10 -23 -11 -4 -11
20 -1 61 -47 51 -57 -2 -3 -22 -8 -43 -11 -22 -3 -42 -11 -46 -17 -11 -16 -43
7 -43 31 0 11 -6 27 -13 35 -9 12 -10 18 -2 23 8 5 8 11 0 20 -7 9 -6 16 5 25
11 9 12 16 4 26 -8 10 -5 19 14 36 19 18 23 28 16 41 -7 12 -5 20 11 29 11 7
20 21 20 30 0 10 7 18 15 18 8 0 15 5 15 11 0 6 8 9 18 7 15 -4 18 -1 14 20
-4 22 -2 24 22 20 21 -4 26 -1 26 14 0 14 5 18 15 14 8 -3 15 0 15 6 0 11 29
37 42 38 3 0 8 -8 11 -17 2 -11 7 -2 12 20 5 26 2 60 -9 105 -18 73 -40 111
-74 127 -12 5 -22 15 -22 22 0 7 -8 17 -18 22 -14 8 -18 23 -19 70 -1 34 3 61
8 61 22 0 51 39 44 59 -4 12 -2 21 4 21 6 0 11 7 11 15 0 9 7 18 15 21 8 4 15
12 15 20 0 8 8 14 18 14 10 0 22 12 29 30 8 21 16 28 27 24 21 -8 20 -24 -1
-39 -23 -17 -7 -35 33 -35 25 0 34 4 34 17 0 9 3 13 7 10 3 -4 18 3 32 15 l26
23 -24 -27 c-14 -16 -21 -31 -17 -35 4 -5 21 8 37 27 16 19 29 30 29 25 0 -4
-8 -17 -17 -28 -17 -20 -17 -20 7 -13 14 4 79 19 145 34 67 15 109 28 95 30
-14 2 -32 10 -40 17 -10 8 -56 14 -130 17 -78 3 -126 10 -150 22 -34 16 -34
16 -5 10 114 -22 299 -34 283 -18 -4 3 -12 6 -20 8 -18 2 -129 79 -153 106
-19 21 -66 50 -81 50 -4 0 1 -7 12 -16 19 -15 19 -16 -1 -9 -53 18 -75 23 -70
15 8 -12 71 -32 92 -28 11 2 22 -6 28 -19 5 -12 18 -27 30 -32 18 -10 17 -10
-5 -5 -14 4 -42 18 -63 32 -20 14 -40 22 -44 18 -3 -3 0 -6 8 -6 22 0 -12 -20
-35 -20 -19 0 -19 0 0 22 15 19 16 20 2 9 -10 -7 -18 -12 -19 -10 -5 24 -4 51
2 55 4 2 3 19 -2 36 -10 38 -7 43 19 29 12 -6 31 -11 44 -10 16 0 10 4 -18 13
-23 7 -46 16 -52 20 -15 9 -3 44 17 49 9 3 1 5 -16 6 -31 1 -41 10 -26 24 3 4
12 2 20 -4 9 -8 13 -8 13 -1 0 8 25 9 80 5 52 -4 84 -2 93 5 10 9 13 4 14 -26
1 -37 1 -37 -13 -12 l-15 25 7 -25 c11 -42 55 -80 114 -97 30 -8 57 -17 59
-19 2 -2 -4 -15 -13 -29 -17 -26 -48 -35 -42 -12 1 6 1 9 -1 5 -3 -5 -20 -8
-39 -8 -19 0 -34 -4 -34 -10 0 -5 24 -10 54 -10 48 0 55 3 77 31 33 43 57 50
94 28 37 -23 58 -24 76 -3 11 14 13 14 22 -2 5 -9 11 -44 12 -76 2 -57 4 -62
54 -112 28 -30 51 -58 51 -64 0 -12 38 -27 47 -18 3 3 23 -4 44 -14 21 -11 42
-20 46 -20 4 1 -9 10 -29 21 -26 13 -38 27 -39 42 0 15 -2 17 -6 7 -6 -16 -23
-30 -35 -30 -19 0 -4 24 47 77 38 40 53 63 49 75 -3 10 0 43 6 74 9 41 15 53
23 45 22 -22 28 -10 8 15 -25 32 -37 89 -24 117 31 67 44 113 19 68 -7 -13
-16 -19 -19 -14 -8 12 34 95 69 136 13 16 27 41 30 55 3 15 10 38 14 52 l8 25
1 -25 c0 -33 -22 -96 -45 -123 -9 -12 4 -1 30 25 40 40 45 51 36 67 -14 27
-13 30 10 24 11 -3 20 0 20 6 0 6 -9 11 -20 11 -24 0 -27 28 -4 37 8 3 26 -4
40 -18 17 -16 23 -18 19 -7 -9 22 -53 51 -65 43 -6 -3 -10 0 -11 7 0 7 -11
-18 -23 -56 -13 -38 -36 -85 -52 -104 -16 -20 -39 -51 -50 -70 -14 -21 -24
-29 -27 -20 -2 7 -5 2 -5 -12 -1 -14 -4 -42 -8 -62 -3 -20 -1 -59 5 -87 12
-55 4 -171 -11 -171 -6 0 -7 8 -4 18 5 12 1 11 -11 -5 -10 -12 -31 -24 -48
-26 -21 -3 -15 -4 18 -6 44 -1 48 -3 45 -23 -2 -15 -11 -24 -25 -26 -25 -4
-30 -17 -10 -25 9 -4 9 -6 -1 -6 -7 -1 -11 -5 -7 -10 3 -6 -4 -15 -15 -21 -18
-10 -20 -8 -21 22 0 31 -1 31 -10 10 -5 -13 -7 -28 -3 -33 11 -18 -13 -8 -34
14 -26 27 -28 39 -7 31 8 -4 15 -1 15 4 0 6 12 13 28 15 15 2 2 3 -28 3 -50
-1 -55 1 -58 22 -3 20 1 22 40 23 27 1 34 3 18 6 -14 3 -33 14 -42 26 l-17 22
6 -25 c4 -18 3 -22 -5 -15 -14 13 -18 120 -7 201 6 47 4 66 -8 85 -8 13 -20
40 -26 60 -6 20 -28 55 -47 77 -19 23 -39 54 -44 69 -26 82 -37 105 -43 88 -4
-9 -12 -13 -18 -9 -13 8 -56 -14 -63 -32 -3 -9 6 -6 23 7 38 28 67 14 66 -33
0 -20 -5 -32 -12 -31 -21 4 -2 -29 46 -83 27 -29 54 -73 64 -103 10 -29 20
-51 22 -49 9 9 -27 90 -65 149 -26 41 -40 73 -39 93 l1 31 8 -34 c4 -18 22
-52 39 -75 50 -65 68 -114 69 -186 2 -107 -24 -158 -72 -146 -18 4 -23 11 -19
26 3 11 10 17 17 13 6 -3 8 -3 4 2 -4 4 -3 14 4 22 7 9 0 8 -20 -4 -17 -10
-29 -20 -27 -23 9 -15 -100 -9 -139 9 -67 29 -102 97 -71 136 15 19 16 18 13
-17 -2 -21 -2 -35 1 -33 2 3 9 -5 15 -17 16 -31 56 -57 96 -63 l35 -5 -35 12
c-47 17 -63 28 -83 58 -28 40 -22 65 19 85 43 20 65 8 34 -20 -24 -22 -26 -52
-4 -83 20 -28 69 -30 84 -3 13 25 13 71 0 71 -5 0 -10 -9 -10 -20 0 -11 -5
-20 -11 -20 -5 0 -7 -4 -4 -10 3 -5 -3 -10 -13 -10 -27 0 -35 26 -17 60 8 16
15 36 15 45 0 8 8 15 18 15 24 0 62 -36 62 -58 0 -14 2 -15 10 -2 11 18 18 11
23 -20 2 -13 9 -26 16 -28 7 -2 2 -12 -13 -23 -32 -25 -44 -24 -21 1 17 18 17
20 2 14 -9 -3 -17 -10 -17 -15 0 -4 -12 -15 -27 -23 -26 -14 -27 -15 -5 -16
12 0 22 4 22 10 0 5 6 7 13 4 8 -3 20 2 27 11 11 14 14 13 25 -2 7 -10 11 -26
9 -37 -3 -14 -1 -17 7 -9 7 7 10 35 7 72 -4 50 -9 66 -33 91 -67 70 -203 75
-282 11 -44 -35 -101 -47 -158 -32 l-40 11 43 -4 c50 -5 84 2 76 16 -4 6 2 7
17 3 13 -4 21 -4 16 0 -4 5 1 18 10 29 18 21 18 21 -2 4 -21 -18 -93 -38 -135
-37 -39 0 -3 15 53 23 58 7 68 12 61 30 -5 12 -11 12 -39 0 -44 -18 -91 -19
-79 -1 13 17 10 36 -10 77 l-17 35 6 -32 c7 -35 -2 -112 -15 -132 -6 -10 -15
-9 -45 5 -30 14 -41 15 -56 6 -11 -7 -19 -8 -19 -2 0 5 9 14 21 20 16 9 26 8
47 -6 l27 -17 -19 21 c-11 13 -31 22 -48 22 -15 0 -28 3 -29 8 0 4 -2 17 -5
30 -3 19 0 22 32 22 23 0 33 4 28 11 -3 6 -24 9 -45 7 -24 -2 -38 0 -36 7 6
18 57 17 85 -1 l27 -17 -19 21 c-10 11 -31 24 -47 27 -33 7 -39 25 -9 25 11 0
20 5 20 10 0 20 -50 10 -65 -14 -12 -18 -13 -29 -5 -51 6 -16 14 -55 19 -87
l8 -58 -27 31 c-22 27 -31 31 -53 25 -15 -3 -27 -13 -27 -21 0 -8 -9 -15 -20
-15 -11 0 -20 -5 -20 -10 0 -7 -5 -6 -12 1 -17 16 -21 70 -5 63 7 -2 40 -5 75
-7 56 -2 62 0 62 18 0 11 -16 53 -35 93 -46 97 -57 142 -60 242 -2 47 -3 94
-4 105 -2 44 0 60 9 70 6 7 7 36 2 71 -4 32 -10 52 -13 44z m-44 -102 c40 -18
48 -92 11 -102 -31 -8 -54 11 -66 54 -16 59 0 73 55 48z m12 -161 c11 -12 23
-35 25 -52 3 -16 3 -25 1 -18 -3 9 -9 10 -22 1 -42 -26 -91 16 -91 79 0 23 3
25 33 19 17 -4 42 -17 54 -29z m21 -134 c12 -10 22 -29 24 -43 2 -19 -3 -26
-25 -34 -24 -9 -31 -7 -43 9 -17 23 -18 57 -2 73 16 16 22 15 46 -5z m-50
-130 c-17 -43 -14 -172 5 -217 20 -45 20 -46 7 -46 -15 0 -40 99 -40 159 0 62
16 131 30 131 6 0 5 -12 -2 -27z m107 -10 c9 -9 15 -26 13 -38 -3 -14 2 -27
15 -34 10 -7 16 -15 13 -18 -3 -3 -12 2 -20 10 -13 12 -21 13 -45 4 -23 -8
-33 -8 -45 2 -19 16 -21 62 -4 79 17 17 54 15 73 -5z m47 -160 c-9 -4 -10 -8
-2 -18 9 -11 7 -12 -11 -8 -17 5 -20 3 -14 -7 6 -9 4 -11 -4 -5 -8 4 -24 -4
-42 -21 -28 -27 -29 -27 -29 -5 0 34 43 71 82 70 18 0 27 -3 20 -6z m117 -39
c12 -15 21 -33 21 -41 0 -18 -54 -70 -68 -65 -5 1 -15 -11 -20 -28 -7 -18 -7
-28 -2 -25 6 4 10 12 10 20 0 8 5 17 12 21 8 5 9 1 4 -12 -3 -10 9 -1 28 21
28 32 36 37 48 27 8 -6 17 -10 20 -7 3 3 2 -12 -1 -32 -6 -36 -8 -38 -46 -39
-22 -1 -52 -7 -66 -12 -15 -6 -30 -8 -35 -4 -4 4 -4 2 0 -5 3 -6 2 -14 -4 -18
-5 -3 -10 -16 -10 -29 0 -12 -4 -27 -10 -34 -7 -9 -7 -9 3 -2 6 6 17 25 23 43
10 30 27 40 48 29 4 -3 2 -8 -5 -13 -12 -7 -11 -14 4 -40 32 -58 13 -99 -48
-99 -34 0 -70 24 -60 41 4 5 -7 6 -24 3 -34 -7 -61 8 -61 34 0 8 -7 23 -16 33
-21 24 -10 53 27 72 25 12 27 15 13 21 -13 5 -15 15 -11 49 4 32 3 38 -5 24
-5 -11 -8 -32 -6 -47 2 -16 1 -27 -4 -24 -4 3 -8 13 -8 22 -1 10 -6 5 -15 -13
l-13 -30 -1 33 c-1 34 40 89 58 78 5 -3 14 1 21 9 24 29 58 18 80 -25 24 -48
24 -50 3 -50 -17 -1 -17 -1 0 -11 9 -5 17 -15 17 -21 0 -6 -8 -7 -17 -3 -15 5
-16 4 -5 -6 7 -8 15 -9 21 -3 16 16 15 48 -2 87 -12 28 -14 44 -7 57 24 45 79
52 109 14z m56 -215 c6 -33 3 -47 -12 -67 -25 -34 -39 -38 -52 -14 -9 18 -8
19 12 16 20 -4 20 -4 -2 6 -37 16 -71 67 -36 53 20 -7 16 17 -5 34 -12 10 -6
12 37 13 l51 0 7 -41z m-405 -17 c0 -17 85 -93 110 -99 14 -3 40 -17 58 -30
17 -13 32 -21 32 -17 0 4 11 -3 24 -16 46 -42 45 -115 -1 -170 -33 -39 -57
-38 -123 8 -61 43 -103 112 -116 192 -7 43 -7 44 12 30 17 -13 18 -13 7 0 -16
22 -28 110 -14 110 6 0 11 -4 11 -8z m500 -11 c0 -5 21 -17 48 -26 52 -19 112
-47 117 -55 4 -7 -92 -4 -120 3 -11 3 -29 6 -40 7 -16 1 -14 3 9 13 l30 13
-43 21 c-24 12 -37 23 -29 26 20 8 28 8 28 -2z m0 -34 l25 -10 -30 -8 c-41
-13 -70 -4 -72 21 -2 17 2 19 25 14 15 -4 38 -11 52 -17z m-93 -24 c-4 -3 0
-14 9 -24 9 -10 14 -25 10 -34 -3 -10 -2 -14 5 -10 6 4 13 -2 16 -14 3 -12 9
-21 14 -21 5 0 3 -11 -3 -25 -15 -34 -26 -31 -34 10 -3 19 -12 35 -19 35 -7 0
-15 7 -19 15 -5 15 -37 22 -35 8 3 -20 -3 -33 -33 -62 -33 -32 -38 -31 -52 16
-6 20 -2 25 33 39 23 9 41 21 41 26 0 5 13 7 30 3 23 -5 30 -3 30 9 0 9 -5 16
-11 16 -5 0 -7 5 -4 10 3 6 11 10 17 10 6 0 8 -3 5 -7z m145 -74 c2 -6 26 -17
53 -24 48 -13 49 -14 14 -14 -19 -1 -44 5 -55 13 -13 10 -23 11 -31 4 -7 -6
-13 -7 -13 -4 0 4 -9 2 -19 -4 -20 -10 -24 2 -8 28 10 15 54 16 59 1z m-372
-267 c0 -15 9 -45 20 -67 23 -45 24 -49 10 -40 -17 10 -37 57 -45 104 -5 31
-4 42 4 37 6 -4 11 -19 11 -34z m308 -150 c-13 -25 -30 -48 -38 -50 -12 -4
-13 -2 -2 9 15 16 16 33 0 23 -7 -4 -8 -3 -4 5 4 6 11 9 16 6 14 -9 30 29 24
56 -5 19 -3 21 5 9 9 -13 11 -12 12 5 1 18 2 18 6 2 3 -10 -6 -39 -19 -65z
m40 -24 c2 -15 -9 -50 -23 -80 -21 -43 -22 -48 -6 -28 33 40 24 11 -15 -54
-43 -69 -55 -134 -30 -159 9 -9 16 -19 16 -22 -3 -12 8 -30 14 -24 4 4 0 26
-8 50 -8 23 -12 47 -9 53 18 29 61 170 56 184 -4 10 -2 13 5 8 6 -4 12 3 14
16 2 12 8 23 15 25 11 4 -16 -88 -51 -169 -26 -61 -15 -178 16 -178 5 0 4 9
-2 19 -21 40 -12 135 20 203 16 34 30 74 31 88 1 22 2 21 10 -7 7 -25 4 -51
-12 -110 -12 -43 -22 -98 -22 -122 0 -28 -2 -39 -8 -30 -15 24 -10 86 11 141
26 69 25 73 -5 18 -28 -52 -32 -123 -11 -175 14 -32 13 -36 -6 -49 -11 -8 -17
-19 -14 -25 4 -5 2 -12 -3 -15 -11 -7 -76 52 -67 62 4 3 11 0 16 -8 21 -33 8
8 -15 49 -14 23 -25 53 -25 65 0 17 -2 18 -10 6 -30 -44 9 57 57 147 44 84 52
106 44 122 -14 26 -14 34 2 29 6 -3 13 -16 15 -30z m-72 -100 c-14 -19 -37
-59 -51 -89 -14 -30 -23 -46 -20 -36 3 10 5 24 5 31 0 18 80 140 87 133 3 -3
-7 -21 -21 -39z m304 -152 c0 -14 -4 -27 -9 -30 -5 -4 -7 4 -5 16 2 13 -1 8
-8 -9 -6 -18 -17 -33 -24 -33 -7 0 -14 -10 -16 -22 -2 -13 -8 -22 -14 -21 -6
1 -10 -6 -10 -15 2 -31 -19 -27 -22 4 -2 19 3 36 12 44 9 7 16 17 16 23 0 16
51 67 67 67 7 0 13 -11 13 -24z m860 -80 c-6 -16 -13 -27 -16 -24 -2 3 0 17 6
32 5 15 11 42 12 59 1 32 1 32 5 -4 2 -19 -1 -48 -7 -63z m-133 19 c21 -14 43
-29 49 -34 6 -5 25 -16 42 -25 56 -29 36 -46 -51 -45 -41 0 -47 2 -29 9 12 5
22 12 22 14 0 3 -8 2 -17 -1 -12 -5 -15 -2 -11 8 5 13 -3 15 -43 11 -50 -4
-64 8 -31 27 9 6 12 11 6 11 -16 0 -4 50 12 50 7 0 30 -11 51 -25z m-1062 -41
c15 -50 34 -86 54 -101 13 -10 14 -15 4 -32 -15 -24 -17 -34 -4 -27 5 4 7 -4
3 -16 -4 -16 -7 -18 -11 -7 -3 7 -11 15 -17 16 -15 3 -3 -52 17 -85 12 -20 12
-24 -1 -32 -8 -6 -30 -9 -49 -8 -26 2 -42 12 -65 41 -28 35 -31 46 -31 105 0
65 1 67 25 67 22 0 25 -4 22 -30 -2 -16 -8 -35 -14 -42 -7 -9 -7 -13 1 -13 6
0 10 -3 9 -7 -6 -30 53 -113 81 -113 11 0 8 5 -8 16 -21 15 -51 69 -51 93 0 6
14 27 32 48 l32 38 -32 -29 c-30 -28 -39 -25 -33 7 1 5 -3 26 -9 47 -8 28 -15
38 -25 34 -8 -4 -13 -10 -10 -14 3 -5 -4 -11 -15 -15 -18 -6 -23 -19 -23 -67
0 -10 -6 -18 -14 -18 -9 0 -11 -5 -6 -12 11 -18 10 -32 -2 -40 -6 -5 -5 -8 3
-8 7 0 10 -4 7 -10 -3 -5 -1 -10 6 -10 7 0 9 -3 6 -7 -4 -3 8 -15 26 -27 25
-15 28 -21 15 -24 -10 -2 -38 11 -64 29 -46 31 -46 32 -39 73 5 22 8 54 7 70
-1 16 3 34 7 40 5 6 11 25 13 41 3 31 16 35 66 20 18 -6 21 -4 16 9 -11 28 3
47 32 43 22 -3 30 -11 39 -43z m350 27 c3 -5 -6 -19 -21 -30 -14 -11 -23 -25
-19 -31 3 -5 1 -10 -5 -10 -6 0 -18 -16 -26 -35 -17 -42 -18 -53 -2 -37 7 7
26 12 43 11 29 -1 29 -1 5 -9 -14 -4 -19 -8 -12 -9 7 -1 -2 -15 -19 -32 -24
-23 -34 -28 -40 -18 -4 7 -11 10 -15 6 -4 -4 0 -15 9 -25 15 -16 15 -21 3 -37
-8 -11 -12 -25 -9 -32 3 -7 -2 -13 -11 -13 -11 0 -16 9 -16 33 0 17 -3 42 -6
54 -5 18 -1 25 17 31 20 8 23 15 20 59 -2 44 1 52 23 67 14 9 26 23 26 31 0 8
8 19 18 24 22 13 29 13 37 2z m695 -77 c0 -11 -161 -179 -183 -191 -43 -24
-51 -12 -9 13 40 24 59 50 27 38 -32 -12 -13 16 19 30 37 15 66 53 41 53 -7 0
-11 -7 -7 -15 4 -11 1 -13 -8 -7 -8 5 -11 4 -7 -2 7 -11 -33 -27 -42 -17 -3 2
4 17 16 31 25 34 153 90 153 67z m154 -43 c11 -13 15 -25 10 -33 -14 -21 -10
-72 6 -85 56 -44 -173 -88 -250 -48 -39 20 -41 49 -2 41 15 -3 22 -3 15 0 -21
9 -2 35 21 29 11 -2 15 -2 9 1 -16 7 -17 31 -1 40 6 4 25 11 42 15 24 5 26 7
9 8 -38 2 -26 21 15 23 l37 1 -34 4 c-53 7 -17 23 50 23 43 0 60 -5 73 -19z
m199 -13 c18 -23 18 -30 7 -57 -16 -40 -94 -111 -121 -111 l-21 0 23 36 c22
36 22 37 4 50 -22 16 -17 24 27 35 l33 9 -37 -5 c-35 -3 -38 -2 -38 20 0 56
87 72 123 23z m-543 -43 c0 -5 -43 -72 -65 -100 -14 -19 -14 -18 -5 9 6 16 8
31 6 33 -3 3 -10 -13 -17 -36 -6 -22 -16 -38 -20 -35 -5 3 -9 0 -9 -5 0 -6 -7
-11 -16 -11 -12 0 -15 6 -10 27 l7 26 -37 -33 c-79 -69 -161 -80 -219 -29 -32
29 -40 31 -87 27 -46 -5 -50 -4 -32 9 10 8 30 17 44 20 14 3 30 10 37 15 8 6
24 3 48 -7 32 -16 34 -19 18 -30 -15 -11 -14 -14 16 -30 26 -13 39 -15 57 -6
17 8 24 7 24 0 0 -18 51 20 103 78 36 38 62 57 95 67 53 16 62 18 62 11z
m-996 -126 c24 -12 25 -12 6 -38 -10 -14 -21 -39 -24 -56 l-5 -30 14 32 c16
35 45 58 88 68 23 6 27 4 24 -11 -1 -11 -6 -25 -10 -31 -13 -20 -2 -15 19 9
10 12 13 18 5 13 -9 -5 -12 -4 -7 3 4 6 13 9 22 5 13 -5 13 -7 -1 -23 -19 -21
-19 -27 0 -27 8 0 15 6 15 14 0 20 18 16 31 -8 8 -15 8 -24 0 -32 -17 -17 -41
-17 -41 1 -1 10 -7 4 -15 -13 -20 -44 -55 -83 -62 -68 -3 9 -10 10 -23 3 -13
-7 -21 -5 -30 5 -7 8 -20 15 -30 15 -10 0 -20 6 -23 14 -4 9 -14 12 -26 9 -14
-4 -21 -1 -21 9 0 8 -13 30 -30 48 -33 37 -36 50 -18 68 13 13 39 16 37 5 -4
-27 5 -28 30 -2 33 32 39 34 75 18z m1644 -14 c30 -25 31 -25 37 -6 5 17 9 19
25 8 29 -17 32 -35 13 -65 -31 -49 -62 -75 -82 -69 -11 3 -22 0 -24 -7 -2 -6
-9 6 -16 27 -14 41 -8 73 11 61 7 -4 2 7 -11 24 -19 28 -20 31 -4 25 16 -6 16
-5 4 10 -22 28 12 22 47 -8z m-84 -3 c3 -5 8 -29 12 -53 l6 -44 -22 35 c-13
19 -27 38 -33 41 -5 4 -6 12 -3 18 8 13 33 15 40 3z m-1769 -67 c0 -38 -37
-48 -55 -15 -14 27 4 52 34 48 16 -2 21 -10 21 -33z m2062 19 c9 -24 -10 -49
-38 -49 -24 0 -36 23 -25 51 7 19 55 18 63 -2z"/>
<path d="M453 1772 c9 -10 27 -37 41 -62 14 -25 26 -40 26 -35 0 6 -9 25 -20
43 -11 17 -18 32 -15 32 15 0 55 -25 55 -34 0 -7 24 -34 53 -61 l52 -50 -49
52 c-26 28 -46 55 -43 60 3 5 -22 23 -55 40 -34 18 -53 24 -45 15z"/>
<path d="M476 1681 c-5 -7 37 -69 61 -91 15 -13 -21 44 -38 61 -11 11 -17 24
-14 29 4 6 4 10 1 10 -3 0 -7 -4 -10 -9z"/>
<path d="M453 585 c-7 -20 2 -29 21 -22 9 4 13 13 10 22 -8 19 -23 19 -31 0z"/>
<path d="M2506 585 c-3 -9 1 -18 10 -22 19 -7 28 2 21 22 -8 19 -23 19 -31 0z"/>
<path d="M2387 2787 c-4 -10 -7 -45 -7 -77 0 -49 -4 -63 -22 -80 -14 -13 -17
-19 -7 -15 10 4 19 -2 27 -17 10 -21 11 -20 11 14 1 20 6 47 11 60 7 14 8 43
3 78 -6 38 -11 49 -16 37z"/>
<path d="M2416 2755 c4 -22 11 -41 15 -43 5 -2 2 -16 -6 -32 -11 -21 -15 -59
-14 -132 l1 -103 13 48 c15 53 36 82 77 103 39 20 48 18 48 -14 0 -32 -22 -67
-51 -83 -16 -8 -25 -7 -42 8 -12 10 -19 14 -15 10 11 -15 -33 -150 -73 -223
-21 -39 -39 -78 -39 -85 1 -8 8 -2 16 14 8 15 19 27 25 27 5 0 2 -11 -6 -24
-15 -23 -15 -24 16 -28 18 -3 49 -1 68 3 20 4 37 6 39 4 3 -2 1 -20 -2 -40 -6
-31 -10 -35 -29 -29 -12 3 -33 17 -48 30 -34 32 -56 30 -78 -7 -19 -32 -19
-32 1 -60 20 -26 20 -30 6 -46 -9 -10 -19 -28 -22 -40 -14 -46 -108 14 -98 63
5 27 37 54 63 54 19 0 29 20 29 56 0 14 10 48 21 75 21 48 21 50 4 69 -20 22
-60 27 -71 9 -4 -7 3 -10 19 -7 15 1 27 -1 29 -7 2 -5 -7 -11 -20 -13 -19 -3
-73 -42 -57 -42 2 0 -5 -21 -16 -47 -24 -57 -18 -90 11 -55 10 12 24 22 30 22
7 0 10 6 7 14 -7 17 29 61 37 47 4 -5 2 -12 -4 -16 -5 -3 -10 -19 -10 -34 0
-35 -9 -44 -27 -29 -11 9 -13 9 -11 0 2 -7 -12 -21 -29 -33 l-33 -21 -11 29
c-6 15 -14 50 -17 77 -3 34 -7 44 -13 33 -5 -9 -17 -13 -29 -10 -11 3 -33 1
-49 -5 -24 -8 -31 -7 -35 5 -4 8 -13 13 -21 9 -8 -3 -15 -1 -15 4 0 13 -108
24 -133 12 -17 -7 -12 -9 24 -5 35 4 58 -1 103 -21 43 -20 62 -24 76 -16 28
15 57 12 64 -6 5 -14 1 -16 -27 -11 -41 6 -70 -7 -35 -16 12 -4 35 -7 51 -7
28 0 36 -13 15 -26 -8 -5 -6 -10 8 -16 12 -5 3 -7 -27 -4 -25 3 -59 1 -75 -4
-25 -8 -22 -9 16 -5 32 4 39 2 25 -4 -14 -7 -4 -8 35 -6 42 3 48 2 25 -4 -25
-7 -26 -9 -7 -10 13 -1 22 -7 22 -17 0 -14 -8 -16 -42 -11 -29 4 -37 3 -23 -3
11 -5 34 -9 50 -10 l30 -2 -32 -11 c-38 -14 -52 -27 -30 -27 9 0 19 5 22 10
10 15 42 12 42 -5 0 -8 -5 -12 -10 -8 -5 3 -19 1 -30 -5 -12 -6 -35 -13 -51
-17 -15 -3 -27 -8 -24 -10 4 -4 63 9 91 20 14 6 17 2 17 -19 0 -27 -31 -51
-54 -43 -7 3 -50 -28 -96 -69 -45 -41 -89 -74 -96 -74 -7 0 -25 -11 -40 -25
l-27 -25 64 1 c35 0 87 4 114 8 49 7 49 8 23 19 -18 7 -37 8 -55 2 -15 -4 -45
-11 -67 -14 -33 -4 -36 -3 -21 8 10 7 29 11 44 9 19 -2 21 -1 8 5 -15 6 -12
10 15 24 18 9 56 26 85 38 30 13 53 29 56 41 7 25 3 24 -49 -12 -25 -17 -47
-29 -49 -27 -3 2 25 23 61 47 36 24 68 40 71 37 3 -3 -2 -8 -11 -12 -15 -6
-15 -9 4 -29 l22 -23 -26 -17 c-14 -10 -33 -15 -41 -11 -10 3 -13 2 -10 -4 4
-6 23 -8 43 -5 28 4 32 3 17 -4 -11 -5 -33 -10 -50 -11 -16 0 -38 -7 -49 -15
-17 -13 -15 -14 20 -8 22 3 47 10 56 14 22 12 31 11 24 0 -4 -5 0 -12 6 -15 7
-4 2 -4 -12 -2 -24 5 -24 4 -6 -9 17 -13 22 -13 38 2 13 12 15 19 7 29 -5 7
-9 32 -7 56 3 39 6 43 32 46 18 2 26 0 21 -7 -3 -7 -3 -11 2 -10 20 4 27 -2
13 -12 -13 -9 -13 -10 0 -6 8 2 14 11 12 21 -3 18 6 20 28 6 10 -6 11 -10 3
-10 -7 0 -13 -8 -13 -17 -1 -25 -55 -99 -70 -95 -20 5 -41 -30 -27 -47 9 -10
7 -16 -6 -26 -10 -7 -17 -26 -17 -46 -1 -32 -1 -33 -15 -15 -18 24 -19 41 -2
58 10 10 22 58 14 58 -1 0 -18 -5 -37 -11 -19 -5 -87 -14 -150 -20 -63 -5
-120 -10 -127 -11 -7 -1 -10 -5 -7 -10 3 -4 -12 -9 -33 -9 l-38 -1 45 -10 c64
-13 261 -58 288 -64 17 -5 21 -3 16 9 -3 8 -1 18 5 22 6 3 11 -2 11 -13 0 -15
9 -21 38 -26 47 -7 77 -6 37 3 -25 5 -31 12 -33 37 -4 45 26 55 41 14 7 -18
19 -30 29 -30 10 0 18 -6 18 -14 0 -8 7 -16 15 -20 8 -3 15 -12 15 -21 0 -8 5
-15 10 -15 7 0 8 -13 4 -36 -5 -26 -4 -35 4 -30 18 11 59 -31 45 -45 -6 -6 -9
-17 -7 -24 3 -7 1 -16 -4 -19 -6 -3 -8 -15 -5 -25 3 -13 -2 -23 -16 -30 -12
-7 -21 -18 -21 -26 0 -9 -9 -15 -22 -15 -12 0 -18 -3 -15 -7 10 -10 -13 -33
-33 -33 -10 0 -20 -6 -23 -12 -3 -7 -5 -2 -4 12 0 14 4 30 9 37 5 6 5 14 -2
18 -5 3 -8 21 -6 40 2 19 1 35 -2 37 -4 2 -14 18 -23 37 l-15 34 2 -49 c2 -27
5 -65 9 -84 l5 -35 -13 28 c-7 15 -17 24 -22 20 -4 -5 -5 0 -2 10 4 11 3 16
-4 12 -6 -4 -9 -1 -7 6 4 20 -53 170 -67 175 -7 3 -29 -5 -49 -17 -44 -25
-149 -36 -213 -21 l-41 9 10 -29 c21 -58 -27 -203 -90 -273 l-27 -29 35 25
c53 40 102 137 104 207 l2 57 84 0 c47 1 91 4 97 8 54 33 79 -2 69 -97 -7 -71
-37 -136 -82 -182 -23 -22 -30 -35 -22 -40 7 -4 14 -2 16 4 2 7 13 10 28 6 20
-5 24 -2 24 16 0 11 4 19 9 15 5 -3 12 5 14 17 4 20 4 20 6 -4 0 -15 15 -61
31 -103 22 -54 30 -92 30 -135 0 -44 4 -60 14 -60 15 0 26 31 25 70 0 23 -1
24 -10 5 -7 -16 -8 -13 -4 13 3 23 1 31 -7 26 -6 -4 -8 -3 -5 3 4 6 -7 40 -23
75 -39 84 -49 152 -25 178 9 10 14 24 9 31 -4 8 -3 10 4 5 15 -9 16 57 3 100
-17 54 -22 86 -12 80 5 -3 12 -24 16 -46 4 -25 11 -38 18 -33 7 4 8 0 4 -11
-7 -18 12 -63 36 -88 20 -20 38 -71 42 -119 2 -24 8 -56 14 -72 l11 -27 57 46
c32 26 62 53 66 61 5 7 13 10 19 7 6 -4 8 -3 4 4 -3 6 1 18 10 26 18 19 38 21
29 4 -4 -7 2 -3 13 9 11 12 23 19 27 15 5 -4 4 -1 0 7 -6 11 -4 13 9 8 11 -5
15 -3 10 5 -5 8 -1 9 12 4 13 -5 16 -4 8 4 -7 7 -36 -3 -100 -36 -49 -25 -93
-51 -99 -56 -5 -6 5 -3 24 7 18 9 30 12 27 6 -4 -5 -20 -16 -36 -25 -17 -8
-28 -10 -25 -5 4 5 1 9 -5 9 -6 0 -20 -19 -30 -42 -11 -24 -20 -35 -20 -26 0
34 19 65 80 128 63 65 99 126 100 168 0 12 5 22 10 22 25 0 -12 -104 -52 -147
l-21 -23 39 14 c150 51 189 56 238 31 28 -15 28 -15 14 7 -16 23 -85 43 -120
34 -36 -8 -9 72 41 124 17 18 39 50 48 71 19 42 30 48 35 22 2 -9 4 39 5 106
2 114 1 123 -21 148 -23 26 -24 27 -49 10 -33 -22 -37 -21 -37 3 0 12 -6 31
-14 43 -8 13 -12 37 -9 60 5 37 19 47 39 27 8 -8 15 -6 23 4 10 11 9 19 -1 36
-11 17 -11 22 2 30 13 9 13 10 0 10 -12 1 -12 3 2 14 12 9 14 16 7 23 -6 6
-13 44 -15 84 -2 40 -11 83 -19 95 -11 18 -12 28 -2 53 9 24 9 38 0 62 -11 29
-10 35 17 69 34 43 38 75 14 109 -13 17 -14 28 -6 44 21 45 21 67 -3 95 l-23
27 -45 -17 c-45 -16 -46 -16 -61 5 -15 21 -16 20 -10 -18z m129 -15 c10 -16
-15 -89 -34 -99 -34 -19 -88 8 -75 38 4 9 7 25 6 36 0 11 2 14 5 7 3 -9 12 -7
30 8 28 21 58 26 68 10z m-31 -313 c6 -26 -18 -67 -40 -67 -47 0 -56 73 -11
89 29 11 44 4 51 -22z m5 -118 c25 -71 9 -200 -29 -244 -10 -11 -21 -31 -25
-45 -5 -19 -4 -21 4 -10 9 13 11 12 11 -5 0 -25 -20 -59 -20 -35 0 13 -1 13
-10 0 -6 -10 -24 -14 -55 -13 -24 1 -47 -2 -49 -6 -2 -3 21 -6 52 -5 40 2 62
-3 75 -13 22 -21 22 -35 -3 -83 -21 -42 -47 -55 -82 -44 -13 3 -20 3 -16 -1
13 -14 -11 -42 -39 -48 -40 -8 -73 16 -73 54 0 17 6 32 15 35 8 4 12 10 9 15
-3 5 -1 9 5 9 5 0 15 -8 20 -17 6 -10 11 -14 11 -9 0 4 9 -2 21 -15 11 -13 17
-18 14 -10 -6 10 -2 12 16 7 20 -6 21 -5 6 4 -9 6 -21 9 -26 6 -4 -3 -13 6
-19 19 -7 14 -18 25 -27 25 -17 0 -20 16 -5 25 17 11 11 20 -20 32 -16 6 -30
8 -30 3 0 -4 -15 -5 -32 -1 -27 6 -33 12 -36 36 -5 65 43 72 72 11 15 -31 61
-60 50 -32 -5 14 39 98 61 116 9 8 27 10 46 6 l32 -6 -24 18 c-13 10 -36 23
-51 30 -37 15 -35 32 2 32 50 0 89 -50 81 -105 -3 -20 39 41 51 75 16 44 15
168 -1 198 -6 12 -7 22 -2 22 5 0 14 -14 20 -31z m-45 -22 c19 -52 -23 -83
-69 -53 -31 20 -32 50 -2 71 31 22 60 15 71 -18z m-160 7 c25 -9 19 -22 -11
-26 -22 -2 -34 -14 -56 -56 -36 -67 -47 -60 -17 10 28 69 49 86 84 72z m281
-450 c-3 -26 -9 -53 -13 -62 -4 -11 -1 -13 7 -7 10 6 12 -2 6 -36 -10 -63 -58
-162 -89 -186 -14 -12 -26 -28 -26 -37 0 -41 -82 -167 -98 -151 -3 3 7 18 22
34 15 15 35 51 46 79 l20 51 -26 -9 c-55 -21 -92 -4 -85 39 1 7 -2 10 -8 7 -5
-3 -15 10 -21 29 -6 19 -16 35 -21 35 -6 0 -5 5 1 13 6 6 19 26 30 43 11 19
52 52 102 83 47 28 100 67 118 86 19 19 36 35 38 35 2 0 1 -21 -3 -46z m-347
-93 c15 -10 37 -22 50 -25 23 -8 30 -40 12 -51 -6 -4 -8 -11 -5 -16 4 -5 2 -9
-3 -9 -12 0 -82 68 -82 80 0 4 -3 15 -6 24 -8 21 2 20 34 -3z m-147 -22 c11
-5 17 -15 13 -20 -4 -6 -16 -4 -32 7 l-27 17 22 -24 c18 -21 19 -26 7 -37 -8
-7 -14 -8 -14 -2 0 5 -10 10 -22 10 -17 0 -19 3 -10 12 8 8 15 8 29 -2 16 -13
17 -12 3 3 -12 13 -22 14 -55 7 -43 -10 -79 -12 -57 -3 6 2 9 9 6 15 -4 6 1 8
12 4 11 -3 30 1 44 8 31 17 56 19 81 5z"/>
<path d="M2322 1914 c2 -9 14 -24 28 -33 24 -15 24 -15 11 2 -9 11 -10 17 -2
17 6 0 11 5 11 11 0 8 -5 7 -15 -1 -9 -7 -19 -10 -22 -6 -4 4 -1 11 7 16 12 8
12 10 -3 10 -12 0 -17 -6 -15 -16z"/>
<path d="M2545 1800 c-4 -6 -23 -22 -43 -35 -21 -13 -53 -38 -72 -55 -33 -30
-33 -31 -4 -11 17 11 37 27 44 36 25 30 29 14 5 -21 -13 -19 -27 -45 -31 -56
-4 -14 -8 -17 -14 -8 -5 9 -9 8 -13 -2 -11 -29 25 -14 40 16 8 17 32 51 52 76
41 50 55 70 47 70 -3 0 -8 -5 -11 -10z"/>
<path d="M2503 1666 c-19 -52 -19 -56 -3 -39 9 10 16 21 13 25 -2 4 1 17 7 28
6 12 10 26 8 32 -2 6 -14 -15 -25 -46z"/>
<path d="M2179 2746 c-120 -42 -126 -45 -228 -125 -76 -60 -169 -140 -130
-112 9 6 20 7 24 3 5 -4 5 -1 0 7 -6 10 -4 12 4 7 9 -6 8 -13 -6 -28 -18 -21
-18 -21 5 -9 13 7 28 22 33 34 19 39 128 111 188 124 51 11 52 12 14 10 -23
-1 -39 1 -37 5 3 5 14 8 24 8 10 0 25 7 34 15 8 8 32 15 52 15 27 0 46 8 67
28 24 22 29 23 22 7 -5 -11 -20 -76 -35 -145 -24 -116 -54 -199 -67 -186 -7 7
-86 -25 -95 -38 -4 -6 -13 -11 -20 -12 -23 -2 -69 -16 -65 -21 10 -9 105 20
140 43 20 13 37 21 37 16 0 -12 -80 -60 -114 -68 -27 -6 -28 -8 -11 -14 11 -4
-20 -7 -70 -6 -49 0 -97 -4 -105 -9 -25 -16 -42 -14 -47 4 -8 31 -114 -92
-113 -131 1 -7 6 -3 13 9 7 12 14 21 17 20 3 -1 25 12 50 29 83 57 107 65 178
63 78 -3 123 7 101 23 -11 7 -9 8 5 4 31 -10 114 52 143 107 8 16 23 79 34
140 10 62 23 127 29 146 5 19 7 38 4 42 -3 5 2 9 10 9 9 0 16 5 16 10 0 6 -1
10 -2 9 -2 0 -46 -15 -99 -33z m-419 -501 c-18 -19 -36 -33 -38 -30 -6 6 61
74 67 69 3 -3 -11 -20 -29 -39z"/>
<path d="M736 2761 c-4 -5 2 -43 13 -83 11 -40 23 -98 26 -128 17 -132 88
-232 175 -246 51 -8 40 -22 -26 -33 l-49 -9 40 -1 c22 0 58 6 80 14 86 31 142
19 250 -51 l40 -26 -38 39 c-21 22 -42 53 -47 69 l-10 29 4 -28 c2 -20 0 -27
-10 -23 -24 9 -79 17 -146 20 -138 6 -201 68 -238 231 -24 103 -44 181 -55
210 -5 16 -2 14 18 -7 19 -20 31 -25 48 -21 22 6 23 5 9 -11 -29 -37 -21 -42
59 -40 59 2 67 0 36 -6 l-40 -7 35 -2 c54 -2 84 -12 68 -22 -10 -7 -9 -9 5 -9
30 0 138 -85 143 -112 1 -5 3 -10 4 -13 1 -3 3 -9 4 -14 0 -5 4 -12 8 -16 8
-9 5 16 -5 31 -11 18 5 25 18 7 10 -14 12 -13 10 6 -1 15 -36 48 -119 111 -96
73 -131 93 -199 116 -45 15 -87 29 -93 31 -7 2 -15 0 -18 -6z m129 -71 c-22
-4 -34 -8 -26 -9 8 0 12 -3 9 -6 -3 -3 -13 -2 -22 1 -27 10 1 24 44 22 l35 -1
-40 -7z"/>
<path d="M861 2629 c8 -5 34 -8 59 -8 53 1 44 6 -24 12 -30 3 -43 1 -35 -4z"/>
<path d="M2085 2633 c-59 -9 -43 -18 30 -18 41 0 71 3 67 6 -11 10 -64 17 -97
12z"/>
<path d="M626 2581 c-16 -30 -39 -151 -31 -160 3 -2 5 3 5 12 0 9 6 14 13 11
8 -3 18 7 25 23 l12 28 -20 -24 c-11 -13 -20 -20 -20 -17 0 11 45 95 51 96 3
0 12 -11 19 -25 11 -20 10 -28 -4 -49 -9 -14 -29 -35 -45 -47 -29 -21 -29 -22
-14 -58 20 -47 18 -46 42 -22 23 23 51 27 84 10 l22 -11 -21 19 c-11 12 -31
19 -45 18 -13 -1 -24 -4 -24 -5 0 -1 -10 -4 -22 -5 -17 -2 -23 3 -23 17 0 12
4 16 12 12 7 -4 8 -3 4 4 -4 7 -1 12 7 12 7 0 19 11 25 25 6 14 20 25 29 25
10 0 14 4 8 8 -5 4 -12 16 -14 27 -5 34 -21 55 -40 55 -14 0 -17 6 -13 25 6
33 -4 32 -22 -4z"/>
<path d="M850 2600 c0 -5 -7 -6 -17 -3 -10 4 -14 2 -10 -4 4 -6 1 -14 -5 -16
-8 -4 -7 -6 4 -6 9 -1 20 4 23 9 3 6 31 10 61 10 34 0 53 4 49 10 -8 13 -105
13 -105 0z"/>
<path d="M2060 2600 c-50 -11 1 -11 60 -1 41 8 42 8 10 8 -19 0 -51 -3 -70 -7z"/>
<path d="M2346 2585 c4 -9 -3 -18 -19 -24 -58 -22 -45 -129 19 -145 13 -4 24
-14 24 -22 0 -14 -2 -15 -17 -3 -10 8 -14 9 -10 2 4 -6 2 -15 -4 -19 -6 -3
-15 -1 -20 7 -6 11 -14 10 -43 -4 -20 -9 -36 -22 -36 -28 0 -8 7 -6 18 4 25
23 58 21 83 -4 24 -24 21 -27 48 34 15 36 18 54 11 67 -6 10 -10 37 -10 60 0
22 -7 52 -16 65 -18 27 -37 34 -28 10z m-6 -55 c0 -11 6 -23 14 -26 17 -7 39
-56 34 -78 -3 -14 -7 -13 -36 4 -44 27 -60 62 -42 95 16 30 30 32 30 5z"/>
<path d="M2045 2570 c-12 -4 7 -6 45 -3 36 3 67 7 69 9 9 8 -95 2 -114 -6z"/>
<path d="M820 2551 c0 -8 79 -3 89 5 2 2 -17 4 -42 4 -26 0 -47 -4 -47 -9z"/>
<path d="M1292 2552 c2 -8 7 -13 12 -12 11 2 26 -20 26 -38 0 -7 -5 -10 -12
-6 -6 4 -9 3 -7 -2 35 -68 45 -84 55 -84 7 0 15 -6 17 -12 3 -7 6 -8 6 -3 1 6
-12 26 -29 45 -18 21 -28 42 -24 52 3 9 -2 30 -10 45 -8 15 -15 21 -16 13 0
-13 -1 -13 -11 0 -7 10 -9 11 -7 2z"/>
<path d="M1730 2492 l5 -67 3 59 c2 32 -1 63 -5 67 -4 4 -6 -22 -3 -59z"/>
<path d="M2070 2550 c-22 -5 -6 -6 40 -3 41 3 77 7 79 9 7 7 -83 2 -119 -6z"/>
<path d="M895 2525 c-5 -2 -23 -6 -39 -10 -48 -10 -11 -25 66 -25 56 0 66 3
62 15 -5 11 -16 14 -48 9 -30 -4 -37 -3 -26 5 14 10 7 13 -15 6z"/>
<path d="M1278 2519 c-8 -20 2 -71 17 -85 9 -9 11 -1 11 36 -1 26 -4 46 -8 44
-3 -2 -8 1 -10 8 -3 8 -6 7 -10 -3z"/>
<path d="M1662 2500 c0 -19 4 -44 9 -55 8 -16 8 -15 4 8 -3 16 -2 26 2 24 4
-3 9 6 10 20 1 17 -2 21 -7 13 -6 -10 -9 -8 -13 6 -2 10 -5 3 -5 -16z"/>
<path d="M2048 2523 c-10 -2 -18 -9 -18 -15 0 -6 10 -7 28 -3 15 4 43 11 62
15 35 8 34 8 -10 8 -25 0 -53 -2 -62 -5z"/>
<path d="M2080 2498 c-40 -11 -63 -28 -37 -28 25 0 121 21 129 29 11 10 -53 9
-92 -1z"/>
<path d="M852 2471 c-18 -11 8 -21 51 -20 27 0 29 2 12 9 -28 12 2 12 43 0 29
-8 32 -7 22 5 -14 16 -106 21 -128 6z"/>
<path d="M1696 2464 c-3 -9 -9 -41 -12 -72 -4 -32 -14 -68 -24 -82 -32 -47
-33 -55 -2 -20 23 27 32 48 37 90 3 30 8 65 11 78 5 25 -1 30 -10 6z"/>
<path d="M2138 2475 c-2 -2 -19 -7 -37 -10 -31 -5 -71 -22 -71 -29 0 -3 133
24 138 28 1 2 -4 6 -12 9 -8 3 -16 4 -18 2z"/>
<path d="M865 2420 c1 -10 10 -29 21 -41 21 -24 86 -59 106 -58 7 0 3 4 -10
10 -13 5 -21 13 -18 18 3 5 -17 18 -46 30 -28 12 -49 23 -46 26 3 3 21 -2 41
-10 43 -18 47 -18 47 -5 0 5 -12 13 -27 17 l-28 8 35 6 c28 5 25 6 -12 3 -27
-2 -48 1 -48 6 0 6 -4 10 -8 10 -5 0 -8 -9 -7 -20z"/>
<path d="M2115 2435 c-5 -2 -22 -6 -37 -9 -18 -4 -25 -11 -22 -20 5 -12 11
-12 42 1 55 22 68 45 17 28z"/>
<path d="M1308 2404 c-9 -14 7 -74 27 -99 15 -19 15 -19 4 5 -7 14 -15 43 -19
65 -3 22 -8 35 -12 29z"/>
<path d="M1015 2371 c-4 -8 74 -36 80 -29 2 2 -14 11 -36 20 -21 9 -41 13 -44
9z"/>
<path d="M1330 2367 c0 -8 11 -28 24 -44 13 -15 26 -37 29 -48 3 -15 5 -12 7
10 l2 30 8 -30 8 -30 1 36 c1 31 -2 35 -21 35 -13 -1 -27 8 -34 22 -16 31 -24
38 -24 19z"/>
<path d="M1645 2357 c-6 -12 -19 -26 -30 -32 -11 -6 -21 -15 -21 -20 -1 -6 -4
-32 -7 -60 l-6 -50 12 45 c7 25 22 57 34 70 22 23 39 58 31 65 -2 2 -8 -6 -13
-18z"/>
<path d="M1210 2318 c0 -10 23 -43 50 -73 28 -30 50 -63 50 -72 0 -9 3 -13 6
-10 12 11 -18 67 -50 93 -17 14 -36 38 -43 53 -8 18 -12 21 -13 9z"/>
<path d="M2070 2302 c-28 -12 -31 -16 -16 -20 10 -2 28 5 39 17 25 24 24 25
-23 3z"/>
<path d="M1099 2270 c29 -5 58 -13 64 -19 14 -14 8 -14 -32 0 -34 12 -105 4
-96 -11 3 -5 13 -6 22 -3 12 5 14 3 8 -6 -5 -10 -2 -11 12 -7 39 12 108 14
123 2 13 -9 13 -9 2 6 -20 26 -77 48 -119 47 -34 -1 -32 -2 16 -9z"/>
<path d="M971 2255 c-19 -9 -44 -12 -60 -8 l-26 6 25 -21 25 -20 -30 4 c-28 4
-29 4 -6 -6 19 -8 32 -5 70 17 25 16 53 31 61 35 11 5 10 7 -5 7 -11 0 -35 -6
-54 -14z"/>
<path d="M1805 2240 c-16 -11 -25 -20 -18 -20 6 0 14 4 17 9 7 10 96 4 134
-10 25 -9 26 -8 8 6 -11 8 -25 15 -30 15 -6 0 -4 5 4 11 11 8 7 9 -20 6 -19
-3 -44 -9 -54 -13 -14 -5 -17 -4 -12 4 10 16 6 15 -29 -8z"/>
<path d="M1032 2199 c-12 -19 1 -21 28 -4 8 5 30 12 50 16 31 6 29 7 -16 6
-37 -1 -55 -6 -62 -18z"/>
<path d="M1783 2191 c-52 -13 -97 -45 -115 -81 -20 -38 -26 -140 -7 -107 10
17 12 16 39 -3 15 -11 33 -20 38 -20 6 0 14 -5 18 -12 5 -8 0 -9 -14 -6 -12 4
-25 1 -29 -5 -4 -7 9 -8 40 -4 30 4 47 3 47 -4 0 -5 11 -21 25 -34 18 -19 35
-25 69 -25 25 0 47 4 50 9 8 12 -36 19 -61 10 -23 -8 -63 14 -63 36 0 7 21 18
49 25 70 17 114 52 117 92 0 18 2 35 3 38 0 3 29 4 63 3 l63 -1 -51 7 c-35 4
-68 18 -105 44 -58 39 -118 53 -176 38z m27 -42 c0 -11 5 -29 11 -40 12 -23 2
-62 -14 -56 -7 2 -20 19 -29 38 l-18 34 0 -33 c0 -49 16 -72 50 -72 47 0 66
56 34 104 -8 13 -11 27 -6 30 12 7 62 -16 62 -29 0 -5 5 -3 10 5 8 12 10 10
11 -10 0 -23 1 -23 9 -5 7 17 9 17 9 3 1 -10 5 -18 10 -18 17 0 -8 -64 -34
-87 -59 -51 -150 -52 -207 -2 -12 11 -16 17 -8 13 12 -6 13 -4 3 7 -15 16 -17
49 -3 49 6 0 10 6 10 14 0 17 68 76 87 76 7 0 13 -9 13 -21z"/>
<path d="M1901 2063 c-13 -31 -60 -62 -98 -64 -10 0 -13 -3 -6 -6 38 -15 128
47 121 84 -3 14 -6 11 -17 -14z"/>
<path d="M2010 2194 c0 -10 64 -34 89 -34 45 0 49 20 4 21 -21 1 -44 1 -50 0
-7 -1 -13 2 -13 7 0 5 -7 9 -15 9 -8 0 -15 -2 -15 -3z"/>
<path d="M2109 1981 c-26 -4 -53 -12 -60 -17 -16 -13 -35 -16 -99 -16 -39 0
-42 -2 -20 -10 31 -12 106 -1 137 19 13 8 32 13 43 10 10 -3 27 1 37 9 10 7
16 13 13 12 -3 0 -26 -4 -51 -7z"/>
<path d="M920 1975 c0 -15 69 -45 100 -44 l35 2 -41 6 c-23 4 -49 15 -58 24
-17 16 -36 23 -36 12z"/>
<path d="M1439 1898 c28 -32 74 -37 107 -14 17 13 13 13 -29 4 -45 -9 -51 -8
-75 14 l-27 23 24 -27z"/>
<path d="M1190 1885 c-15 -16 -35 -25 -54 -25 -24 0 -27 -3 -16 -10 20 -13 63
-13 55 0 -3 6 -3 10 2 10 8 1 48 50 40 50 -2 0 -14 -11 -27 -25z"/>
<path d="M1812 1878 l22 -22 -30 -13 c-27 -12 -26 -13 21 -7 28 4 59 10 70 15
17 6 15 8 -11 8 -17 1 -43 10 -57 21 -34 27 -42 25 -15 -2z"/>
<path d="M1747 1784 c4 -46 1 -70 -13 -100 -19 -41 -60 -83 -81 -84 -6 0 -15
-4 -18 -10 -3 -6 1 -7 10 -4 23 9 117 -61 98 -75 -4 -3 -9 -23 -11 -44 -4 -46
-43 -146 -73 -188 -14 -21 -17 -30 -8 -27 40 13 109 168 109 245 0 46 -13 68
-50 83 -16 7 -30 16 -30 21 0 13 5 12 48 -11 21 -11 60 -22 87 -26 l50 -5 -67
24 c-69 24 -85 33 -76 42 2 3 33 -7 69 -21 54 -21 75 -25 134 -21 69 4 69 4
30 -8 -25 -9 -32 -14 -19 -14 12 -1 36 5 53 12 l32 14 -38 11 c-21 6 -69 16
-108 23 -74 12 -142 35 -132 45 3 3 21 1 39 -5 116 -37 333 -60 301 -31 -4 4
-69 20 -143 34 -74 14 -145 29 -157 31 -20 5 -23 12 -24 58 0 28 -4 61 -9 72
-5 12 -6 -5 -3 -41z"/>
<path d="M1835 1803 c-19 -10 -25 -18 -17 -21 16 -5 62 17 62 30 0 12 -11 9
-45 -9z"/>
<path d="M1240 1780 c-2 -19 -2 -45 -1 -57 2 -24 4 -23 -104 -43 -33 -7 -95
-21 -137 -32 -62 -17 -78 -25 -78 -40 0 -21 0 -21 37 -7 15 6 80 22 143 35 63
14 123 27 133 30 9 3 17 1 17 -4 0 -8 -52 -23 -193 -53 -37 -8 -53 -15 -45
-21 25 -16 108 -8 178 18 40 14 74 23 77 20 8 -7 -58 -35 -122 -53 l-50 -13
54 5 c29 2 72 13 95 25 23 11 46 20 50 20 14 0 -6 -21 -30 -30 -23 -9 -35 -50
-14 -50 6 0 10 6 10 14 0 8 14 23 30 33 17 9 30 20 30 23 0 4 -12 17 -26 31
l-26 24 24 6 c22 7 22 7 -4 8 -29 1 -33 13 -41 106 l-4 40 -3 -35z"/>
<path d="M1442 1705 c2 -15 -8 -26 -42 -42 -24 -13 -39 -23 -32 -23 7 0 27 7
43 16 17 8 37 13 45 10 22 -9 23 7 2 34 -17 21 -19 22 -16 5z"/>
<path d="M1421 1614 c-27 -15 -37 -24 -25 -24 10 0 33 11 49 25 37 30 32 30
-24 -1z"/>
<path d="M1532 1626 c24 -24 76 -47 83 -36 3 6 -2 10 -13 10 -11 0 -31 9 -45
20 -29 23 -45 27 -25 6z"/>
<path d="M826 1604 c-3 -8 -10 -12 -16 -9 -5 3 -10 1 -10 -4 0 -16 26 -13 44
5 20 19 20 24 2 24 -8 0 -17 -7 -20 -16z"/>
<path d="M2137 1607 c4 -6 -5 -7 -21 -3 -15 4 -26 2 -26 -4 0 -10 34 -15 73
-12 10 1 16 -2 12 -8 -3 -5 3 -14 14 -19 30 -16 40 -12 11 4 -30 17 -22 19 17
4 28 -10 28 -10 8 9 -11 10 -32 18 -47 17 -36 -2 -36 12 0 18 19 3 17 4 -10 4
-20 -1 -34 -5 -31 -10z"/>
<path d="M720 1564 c0 -4 7 -15 15 -24 8 -9 16 -31 17 -50 3 -35 3 -35 -36
-34 -29 1 -35 -1 -23 -8 20 -11 23 -38 5 -38 -9 0 -9 -3 -2 -8 6 -4 14 -16 19
-27 7 -17 9 -14 15 19 7 36 25 59 53 69 6 2 5 12 -3 27 -16 30 -60 85 -60 74z"/>
<path d="M785 1561 c-15 -7 -6 -10 39 -16 38 -5 53 -10 45 -16 -8 -5 -10 -9
-6 -9 4 0 3 -9 -3 -20 -7 -13 -7 -20 -1 -20 14 0 34 39 27 55 -3 8 0 16 7 18
7 2 8 8 4 13 -4 5 -12 2 -18 -6 -7 -13 -10 -13 -18 -1 -6 9 -11 10 -15 2 -4
-6 -12 -11 -17 -11 -6 0 -7 5 -4 10 7 12 -12 12 -40 1z"/>
<path d="M906 1548 c-3 -13 -6 -32 -6 -43 -1 -11 -7 -33 -16 -50 -11 -22 -13
-24 -10 -7 2 12 0 20 -5 16 -5 -3 -9 -12 -9 -19 0 -27 -32 -95 -42 -89 -5 3
-4 11 3 20 6 8 9 14 6 14 -3 0 1 16 9 36 8 20 11 33 6 30 -6 -3 -10 9 -9 28 0
20 5 32 11 29 5 -4 6 -1 1 7 -6 10 -12 7 -26 -11 -21 -27 -25 -44 -8 -33 7 4
9 -1 7 -12 -2 -11 -9 -18 -14 -17 -7 1 -8 -18 -3 -55 4 -31 4 -61 -1 -66 -5
-5 -6 -16 -3 -25 4 -14 3 -14 -6 -1 -16 23 -24 -10 -11 -44 5 -15 10 -42 11
-59 0 -32 0 -32 10 -7 6 14 13 48 15 75 3 32 16 67 34 95 36 56 65 124 74 173
7 40 -8 53 -18 15z"/>
<path d="M2150 1556 c0 -9 9 -20 20 -26 11 -6 20 -18 20 -27 0 -9 3 -14 6 -10
4 3 3 14 -1 24 -5 10 -8 21 -7 25 1 4 -7 12 -18 18 -16 8 -20 8 -20 -4z"/>
<path d="M1357 1528 c-21 -11 -36 -23 -33 -26 9 -8 64 19 70 34 3 8 4 14 3 13
-1 0 -19 -10 -40 -21z"/>
<path d="M2253 1540 c-21 -9 -28 -21 -23 -45 1 -5 -7 -15 -16 -22 -14 -10 -15
-13 -3 -13 8 0 23 -10 33 -22 18 -20 18 -24 3 -65 -9 -24 -12 -41 -7 -38 6 3
10 12 10 20 0 7 12 23 26 34 15 12 21 21 15 21 -7 0 -9 5 -6 10 3 6 1 10 -5
10 -6 0 -8 5 -5 10 3 6 1 10 -5 10 -7 0 -10 7 -7 14 4 10 1 13 -9 9 -21 -8
-17 20 7 51 11 14 19 26 17 25 -2 0 -13 -4 -25 -9z"/>
<path d="M1234 1475 c10 -63 31 -122 62 -167 37 -57 46 -46 13 17 -30 59 -62
155 -57 175 2 7 -3 15 -11 18 -11 4 -12 -5 -7 -43z"/>
<path d="M2011 1511 c-9 -6 -14 -31 -15 -77 -2 -74 -28 -148 -69 -194 l-22
-25 25 20 c42 34 59 58 80 114 25 64 25 177 1 162z"/>
<path d="M2122 1493 c18 -44 24 -46 20 -8 -3 21 -10 35 -18 35 -11 0 -11 -5
-2 -27z"/>
<path d="M1691 1490 c-13 -11 -36 -20 -53 -20 -17 0 -27 -4 -23 -10 8 -13 -11
-13 -38 1 -22 10 -22 10 -2 -6 19 -16 19 -16 -10 -11 -16 2 -33 5 -37 5 -4 1
-14 8 -22 17 -15 14 -16 14 -16 -4 0 -26 74 -38 128 -21 69 22 81 28 92 49 13
25 11 25 -19 0z"/>
<path d="M1014 1454 c-5 -34 -1 -62 17 -117 13 -39 23 -77 23 -83 -1 -6 7 -16
17 -23 15 -8 19 -8 19 0 0 7 10 4 23 -7 l22 -19 -19 22 c-10 12 -23 21 -28 20
-6 -1 -13 4 -16 12 -3 9 0 11 7 6 7 -4 2 13 -10 36 -17 34 -23 61 -23 116 -1
86 -21 109 -32 37z"/>
<path d="M1197 1494 c-4 -4 -2 -13 5 -21 9 -11 7 -15 -10 -20 -29 -7 -29 -44
2 -108 27 -54 86 -130 83 -104 -2 8 -17 38 -34 65 -31 49 -49 94 -39 94 3 0
13 -17 21 -37 18 -42 65 -107 72 -99 3 3 -4 18 -15 34 -26 36 -62 126 -62 155
0 26 -14 50 -23 41z"/>
<path d="M1305 1483 c44 -43 175 -69 175 -35 0 10 -4 11 -12 5 -17 -12 -58
-14 -58 -3 0 5 -8 7 -17 3 -16 -6 -16 -4 2 18 11 13 13 18 5 12 -20 -18 -61
-16 -90 3 -25 17 -25 17 -5 -3z"/>
<path d="M1949 1441 c1 -30 -2 -73 -9 -95 -15 -49 -74 -139 -85 -128 -5 4 -5
1 0 -6 5 -10 16 -6 42 20 54 51 76 102 81 188 4 69 3 76 -14 76 -17 0 -19 -7
-15 -55z"/>
<path d="M1060 1422 c0 -65 25 -133 63 -174 18 -19 23 -24 13 -11 -27 32 -15
39 14 8 38 -40 57 -31 21 10 -36 41 -71 106 -71 131 0 25 -23 84 -32 84 -4 0
-8 -22 -8 -48z"/>
<path d="M1920 1449 c0 -11 -4 -18 -9 -15 -5 3 -12 -13 -15 -36 -9 -54 -52
-133 -89 -164 -24 -20 -27 -28 -18 -37 20 -19 117 93 136 156 17 58 20 117 5
117 -5 0 -10 -9 -10 -21z"/>
<path d="M1796 1388 c-16 -39 -45 -89 -64 -110 -19 -21 -31 -42 -27 -46 11
-11 85 77 107 127 10 25 18 57 16 72 -3 23 -8 16 -32 -43z"/>
<path d="M1850 1431 c0 -43 -35 -115 -82 -166 -41 -46 -46 -53 -26 -50 72 13
177 208 123 229 -10 3 -15 -1 -15 -13z"/>
<path d="M1115 1405 c9 -55 50 -128 88 -156 50 -37 60 -31 23 14 -38 47 -60
88 -70 130 -4 15 -11 25 -16 22 -5 -3 -14 3 -20 12 -9 14 -10 10 -5 -22z"/>
<path d="M1673 1368 c-6 -7 -13 -22 -17 -34 -7 -23 -56 -73 -56 -57 0 5 9 18
20 28 23 21 26 37 6 29 -17 -7 -39 -55 -29 -64 17 -16 51 10 73 55 22 45 23
68 3 43z"/>
<path d="M301 1328 c-11 -22 -11 -34 5 -75 33 -90 91 -154 174 -190 51 -23
124 -37 115 -22 -4 5 -13 9 -21 9 -25 0 -128 60 -167 98 -40 39 -73 90 -63
100 3 3 1 11 -6 19 -6 8 -14 31 -18 51 l-7 37 -12 -27z"/>
<path d="M1320 1333 c1 -16 39 -58 46 -50 4 4 2 7 -4 7 -6 0 -9 6 -6 14 3 8
-3 19 -15 26 -12 6 -21 7 -21 3z"/>
<path d="M1572 1307 c-12 -21 -17 -37 -13 -37 13 0 43 49 39 62 -2 6 -14 -5
-26 -25z"/>
<path d="M2081 1319 c-1 -8 13 -37 31 -65 17 -27 42 -67 55 -89 17 -27 22 -32
17 -15 -3 14 -24 51 -46 83 -21 32 -43 68 -48 80 -6 14 -9 16 -9 6z"/>
<path d="M2104 1319 c-5 -8 -3 -10 6 -4 10 6 12 4 7 -9 -4 -10 -3 -15 3 -11 6
3 10 2 10 -4 0 -5 11 -22 25 -37 35 -38 31 -14 -6 32 -17 22 -32 40 -34 42 -2
2 -6 -2 -11 -9z"/>
<path d="M2060 1289 c0 -16 20 -52 55 -98 30 -40 55 -80 55 -89 0 -8 3 -13 6
-9 12 12 -17 72 -52 108 -20 20 -42 54 -49 75 -12 33 -14 35 -15 13z"/>
<path d="M2545 1236 c-33 -12 -85 -38 -115 -59 -57 -38 -61 -48 -9 -21 24 12
37 13 61 5 17 -6 40 -11 52 -10 12 1 1 6 -23 11 -32 7 -40 12 -30 19 12 7 12
9 -1 9 -13 0 -13 1 0 10 20 13 33 13 25 -1 -4 -5 19 4 52 22 85 48 84 49 -12
15z"/>
<path d="M488 1210 c28 -17 76 -43 105 -60 35 -20 46 -30 32 -31 -11 0 -15 -3
-8 -5 7 -3 19 -1 28 3 13 7 4 15 -39 37 -41 21 -53 32 -49 44 3 13 2 14 -4 4
-8 -10 -19 -7 -54 13 -24 13 -48 25 -54 25 -5 0 14 -14 43 -30z"/>
<path d="M1477 1234 c-7 -7 -83 -25 -107 -25 -28 0 -105 -23 -128 -37 -12 -8
-33 -12 -47 -10 -23 5 -24 4 -9 -23 8 -16 17 -29 20 -29 3 0 2 5 -1 10 -3 6 0
10 8 10 8 0 20 7 27 15 7 8 21 15 31 15 11 0 19 5 19 12 0 9 3 9 12 0 9 -9 14
-8 23 5 9 12 16 13 32 5 13 -7 23 -8 30 -1 5 5 21 11 34 13 26 3 54 12 82 27
21 12 20 12 36 -18 11 -21 9 -22 -31 -21 -25 0 -46 -5 -52 -14 -8 -10 -19 -12
-38 -7 -22 6 -28 4 -28 -9 0 -22 51 -21 99 0 19 9 40 14 46 12 6 -3 24 2 39
10 34 18 46 14 68 -22 9 -15 28 -46 43 -70 29 -46 28 -77 -1 -107 -14 -13 -19
-14 -25 -3 -7 10 -9 9 -9 -4 0 -11 -5 -15 -15 -12 -8 4 -12 11 -8 18 4 6 -1 5
-10 -3 -20 -16 -22 -22 -6 -18 6 1 13 -3 16 -10 4 -12 -14 -12 -34 0 -9 6 -11
3 -6 -10 6 -16 5 -17 -12 -3 -17 14 -17 13 -11 -10 6 -23 6 -23 -7 -8 -15 19
-29 14 -21 -6 5 -12 -66 -18 -76 -6 -3 3 -18 12 -35 19 -24 12 -26 15 -12 19
10 2 28 -3 40 -11 20 -13 25 -13 42 0 11 9 47 28 81 44 33 16 73 42 88 58 24
25 26 32 15 44 -12 12 -16 10 -32 -15 -17 -29 -19 -30 -38 -13 -10 10 -19 14
-19 9 0 -5 -13 -10 -29 -11 -20 -1 -32 4 -40 20 -11 21 -11 21 -5 -3 7 -24 6
-25 -13 -7 -19 16 -21 16 -27 2 -3 -9 -14 -15 -23 -14 -10 0 -29 1 -43 0 -24
-2 -24 -2 -5 -13 11 -7 58 -11 107 -11 54 1 90 -3 95 -10 4 -6 0 -8 -10 -4
-10 3 -17 2 -17 -4 0 -6 -4 -7 -10 -4 -5 3 -10 2 -10 -3 0 -12 -50 -8 -77 6
-33 18 -36 15 -14 -17 25 -35 17 -46 -17 -23 -14 9 -28 16 -31 14 -3 -2 -8 5
-12 15 -7 17 -8 16 -9 -2 -1 -19 -1 -19 -11 -1 -9 15 -13 16 -20 5 -7 -11 -9
-11 -9 -1 0 7 -4 10 -10 7 -5 -3 -10 2 -11 12 0 14 -2 13 -10 -5 -5 -13 -13
-20 -19 -17 -15 9 -12 31 6 49 8 9 12 16 7 16 -5 0 -14 -5 -21 -12 -9 -9 -12
-9 -12 4 0 19 -45 68 -62 68 -8 0 -9 -3 -3 -8 11 -7 55 -79 55 -88 0 -3 -5 -2
-12 2 -8 5 -9 0 -6 -14 5 -18 2 -22 -15 -22 -21 0 -21 -1 3 -20 16 -12 29 -15
34 -9 6 5 29 9 53 9 38 0 44 -3 59 -35 19 -41 33 -50 90 -59 35 -6 53 -1 136
38 81 39 101 54 135 98 36 48 73 109 73 121 0 3 -17 1 -37 -4 -52 -12 -51 -12
-68 21 -11 20 -27 32 -55 40 -21 6 -41 14 -44 19 -3 4 -19 8 -36 9 -16 0 -37
8 -46 16 -15 16 -55 22 -67 10z m235 -118 c18 -37 24 -43 39 -35 24 12 51 11
47 -2 -2 -6 -18 -17 -36 -25 l-33 -13 -21 44 c-12 25 -26 45 -30 45 -4 0 -8 7
-8 15 0 29 20 15 42 -29z"/>
<path d="M1965 1187 c-5 -11 -1 -44 9 -78 9 -32 16 -71 16 -86 0 -37 6 -26 14
25 4 28 3 41 -4 37 -5 -3 -8 0 -5 7 3 7 -1 36 -9 63 -10 39 -15 46 -21 32z"/>
<path d="M1597 1163 c-4 -3 -7 -14 -7 -24 0 -9 -7 -19 -15 -23 -8 -3 -15 0
-15 7 0 7 -3 8 -8 2 -8 -11 -52 -15 -52 -5 0 4 -19 4 -42 0 -24 -5 -46 -6 -50
-4 -5 3 -8 -2 -8 -10 0 -16 -25 -22 -33 -8 -2 4 -2 1 -1 -5 4 -16 -22 -17 -32
-1 -4 6 4 20 20 33 27 22 26 41 -3 26 -9 -5 -24 -7 -33 -6 -14 3 -17 -2 -13
-23 3 -15 2 -21 -1 -14 -3 6 -17 12 -31 12 l-25 0 23 -25 c13 -13 33 -25 43
-25 11 0 28 -7 38 -17 17 -15 19 -15 36 0 10 10 22 17 26 17 4 0 16 10 25 22
12 14 22 18 31 13 10 -6 8 -10 -8 -16 -12 -5 -22 -13 -22 -19 0 -7 16 -2 35
10 l35 22 34 -20 34 -20 21 38 c11 21 21 45 21 54 0 16 -12 21 -23 9z"/>
<path d="M2041 1170 c-1 -3 8 -31 19 -63 22 -62 25 -112 10 -151 -7 -19 -6
-24 4 -20 9 3 14 27 15 72 1 53 -4 78 -23 117 -13 28 -25 48 -25 45z"/>
<path d="M1878 1114 c-6 -30 3 -65 15 -57 6 4 8 0 4 -11 -4 -10 -3 -15 3 -11
6 3 10 1 10 -6 0 -7 2 -10 4 -8 3 2 -4 28 -14 58 -12 35 -19 47 -22 35z"/>
<path d="M422 948 c-17 -17 -15 -35 6 -43 14 -5 15 -4 5 6 -7 7 -13 17 -13 21
0 13 28 9 33 -4 4 -8 6 -9 6 -2 2 20 -24 35 -37 22z"/>
<path d="M1345 940 c-4 -6 -10 -8 -15 -5 -4 3 -16 2 -25 -1 -13 -5 -15 -14
-11 -37 8 -40 21 -54 78 -83 26 -13 57 -37 69 -54 17 -23 26 -27 36 -19 15 13
18 33 3 24 -6 -4 -10 8 -10 29 0 37 -15 49 -23 19 -3 -13 -5 -10 -6 7 -2 23
-3 24 -15 8 -12 -16 -14 -16 -24 8 -7 14 -12 35 -13 47 0 17 -4 15 -15 -13
-13 -33 -14 -34 -9 -5 5 28 4 29 -10 11 -8 -11 -15 -15 -15 -10 0 6 7 19 15
30 22 30 18 40 -8 16 l-23 -22 -1 23 c-1 13 1 17 5 10 6 -9 11 -7 20 7 7 11
10 20 8 20 -3 0 -8 -5 -11 -10z"/>
<path d="M1280 602 c0 -5 9 -21 20 -35 25 -32 25 -35 -2 -64 -12 -13 -16 -23
-10 -23 6 0 17 9 24 19 7 10 25 21 38 22 21 3 25 0 23 -21 l-2 -25 11 23 c6
12 16 22 23 22 7 0 20 9 30 20 17 19 17 19 -18 13 -48 -7 -76 1 -109 32 -16
14 -28 22 -28 17z"/>
<path d="M1713 523 c-4 -16 -5 -57 -2 -93 l6 -65 0 70 c0 39 3 80 7 93 4 12 5
22 3 22 -3 0 -9 -12 -14 -27z"/>
<path d="M1227 500 c-26 -20 -56 -45 -65 -54 -9 -10 8 0 38 23 56 42 77 51 64
29 -4 -7 2 -4 14 6 22 19 30 32 13 22 -5 -4 -11 -2 -13 2 -1 5 -25 -8 -51 -28z"/>
<path d="M1662 510 c-1 -8 5 -42 13 -75 7 -33 14 -49 14 -35 0 14 -6 48 -13
75 -8 28 -14 43 -14 35z"/>
<path d="M1737 465 c3 -33 7 -62 9 -64 7 -8 2 74 -6 99 -5 16 -6 2 -3 -35z"/>
<path d="M1811 517 c22 -17 100 -57 95 -48 -7 11 -79 51 -92 51 -4 0 -5 -1 -3
-3z"/>
<path d="M1408 487 c-7 -14 -7 -17 1 -13 16 10 15 7 -29 -89 -23 -48 -39 -92
-37 -98 2 -6 10 7 19 29 9 21 32 73 51 115 26 57 31 76 20 76 -8 0 -19 -9 -25
-20z"/>
<path d="M1345 490 c-4 -6 -10 -8 -14 -5 -5 2 -17 -5 -27 -18 l-19 -22 23 19
c33 28 28 16 -29 -69 -28 -42 -49 -78 -47 -80 2 -2 31 39 66 91 34 52 60 94
58 94 -3 0 -8 -5 -11 -10z"/>
<path d="M2123 476 c7 -14 15 -20 18 -14 10 16 35 -30 49 -90 7 -28 16 -54 20
-57 4 -3 2 16 -6 42 -22 72 -18 81 17 47 17 -16 40 -45 50 -64 11 -20 17 -25
14 -12 -6 22 3 28 21 15 5 -5 -11 11 -36 35 -45 43 -45 43 -15 37 22 -4 26 -3
15 5 -8 5 -26 10 -40 10 -14 0 -45 16 -69 35 -24 19 -45 35 -46 35 -2 0 2 -11
8 -24z"/>
<path d="M900 470 c-16 -6 -6 -7 30 -3 30 3 57 7 59 9 8 7 -64 2 -89 -6z"/>
<path d="M2468 453 c18 -7 15 -31 -5 -36 -15 -4 -15 -5 -2 -6 20 -1 43 24 34
39 -3 5 -14 10 -23 9 -11 0 -12 -3 -4 -6z"/>
<path d="M830 341 c-30 -10 -68 -25 -85 -35 -16 -9 -21 -14 -10 -10 162 55
260 70 271 39 6 -14 -7 -108 -21 -150 -4 -12 0 -9 9 7 9 14 19 58 22 97 l7 71
-69 -1 c-38 0 -94 -9 -124 -18z"/>
<path d="M848 268 c-76 -40 -136 -74 -134 -76 2 -2 28 9 58 25 29 15 56 29 61
31 4 2 2 -9 -3 -24 -6 -15 -9 -29 -6 -31 2 -3 10 11 17 30 8 24 24 40 47 51
19 9 37 15 39 12 3 -2 -2 -29 -10 -60 -7 -30 -10 -53 -6 -50 5 3 14 32 21 65
10 49 18 63 43 79 63 41 5 17 -127 -52z"/>
</g>
</svg>
